<?xml version="1.0" encoding="utf-8"?>
<!-- Generator: Adobe Illustrator 24.3.0, SVG Export Plug-In . SVG Version: 6.00 Build 0)  -->
<svg version="1.1" id="레이어_1" xmlns="http://www.w3.org/2000/svg" xmlns:xlink="http://www.w3.org/1999/xlink" x="0px"
	 y="0px" viewBox="0 0 14 14" style="enable-background:new 0 0 14 14;" xml:space="preserve">
<path d="M12.63,0H1.38C0.62,0,0,0.62,0,1.38v11.24c0,0.77,0.62,1.39,1.38,1.39h11.24c0.76,0,1.38-0.62,1.38-1.38V1.38
	C14.01,0.62,13.39,0,12.63,0z M7.17,10.42h-1.3L4.85,4.75L3.5,4.8V4.24l1.9-0.57c0.92-0.3,1.03,0.62,1.03,0.62l0.83,4.85l1.25-1.9
	c0.83-1.7,0.5-2.11,0.4-2.32C8.8,4.69,8.14,4.33,8.14,4.33c0.41-0.92,1.65-0.71,1.65-0.71s0.62,0.11,0.72,1.33
	S7.17,10.42,7.17,10.42z"/>
</svg>
