<?xml version="1.0" encoding="utf-8"?>
<!-- Generator: Adobe Illustrator 24.3.0, SVG Export Plug-In . SVG Version: 6.00 Build 0)  -->
<svg version="1.1" id="레이어_1" xmlns="http://www.w3.org/2000/svg" xmlns:xlink="http://www.w3.org/1999/xlink" x="0px"
	 y="0px" viewBox="0 0 14 14" style="enable-background:new 0 0 14 14;" xml:space="preserve">
<path d="M11.85,0.06H2.15C1,0.06,0.06,1,0.06,2.15v9.71c0,1.15,0.93,2.08,2.08,2.08h9.71c1.15,0,2.08-0.93,2.08-2.08V2.15
	C13.94,1,13,0.06,11.85,0.06z M10.26,11.17c-0.13,0.61-1.32,0.69-1.32,0.69C6.54,11.7,4.89,8.28,4.89,8.28
	C2.98,4.53,4.01,3.1,4.01,3.1c0.37-0.54,0.51-0.58,0.87-0.81c0.36-0.23,0.49-0.11,0.49-0.11S5.73,2.2,6.3,3.13
	c0.57,0.93,0.51,1.38,0.51,1.38c0.05,0.43-0.27,0.57-0.27,0.57C5.81,5.32,5.87,6.15,5.87,6.15c0.04,1.32,0.75,2.01,1.21,2.38
	s1.05,0.3,1.11,0.26c0.03-0.02,0.15-0.08,0.25-0.13C8.59,8.6,8.77,8.59,8.93,8.65C9.72,8.98,10.37,10.63,10.26,11.17z"/>
</svg>
