<svg width="32" height="25" viewBox="0 0 32 25" fill="none" xmlns="http://www.w3.org/2000/svg">
<path d="M32 3.27937V21.8247C32 23.03 31.024 24.006 29.8187 24.006H24.7267V11.6434L16 18.19L7.27333 11.6434V24.0074H2.18133C1.89476 24.0074 1.611 23.9509 1.34627 23.8412C1.08153 23.7315 0.841 23.5707 0.638427 23.368C0.435854 23.1653 0.275206 22.9247 0.165662 22.6599C0.0561178 22.3951 -0.000174757 22.1113 4.07535e-07 21.8247V3.27937C4.07535e-07 0.582041 3.07867 -0.957959 5.236 0.660708L7.27333 2.19004L16 8.73404L24.7267 2.18737L26.764 0.660708C28.92 -0.956625 32 0.582041 32 3.27937Z" fill="#ECE1DC"/>
</svg>
