<svg width="32" height="32" viewBox="0 0 32 32" fill="none" xmlns="http://www.w3.org/2000/svg">
<path d="M16 0C7.16 0 0 7.164 0 16C0 23.0707 4.584 29.0667 10.94 31.18C11.74 31.3307 12.0333 30.836 12.0333 30.4107C12.0333 30.0307 12.02 29.024 12.0133 27.6907C7.56267 28.656 6.624 25.544 6.624 25.544C5.896 23.6973 4.844 23.204 4.844 23.204C3.39467 22.212 4.956 22.232 4.956 22.232C6.56267 22.344 7.40667 23.88 7.40667 23.88C8.83333 26.3267 11.152 25.62 12.0667 25.2107C12.2107 24.176 12.6227 23.4707 13.08 23.0707C9.52667 22.6707 5.792 21.2947 5.792 15.164C5.792 13.4173 6.412 11.9907 7.43867 10.8707C7.25867 10.4667 6.71867 8.84 7.57867 6.636C7.57867 6.636 8.91867 6.20667 11.9787 8.276C13.2587 7.92 14.6187 7.744 15.9787 7.736C17.3387 7.744 18.6987 7.92 19.9787 8.276C23.0187 6.20667 24.3587 6.636 24.3587 6.636C25.2187 8.84 24.6787 10.4667 24.5187 10.8707C25.5387 11.9907 26.1587 13.4173 26.1587 15.164C26.1587 21.3107 22.4187 22.664 18.8587 23.0573C19.4187 23.5373 19.9387 24.5187 19.9387 26.0173C19.9387 28.1587 19.9187 29.8787 19.9187 30.3987C19.9187 30.8187 20.1987 31.3187 21.0187 31.1587C27.42 29.06 32 23.06 32 16C32 7.164 24.836 0 16 0Z" fill="#ECE1DC"/>
</svg>
