<svg width="326" height="237" viewBox="0 0 326 237" fill="none" xmlns="http://www.w3.org/2000/svg">
<g filter="url(#filter0_d_7_396)">
<path d="M91.5073 6.32019C94.9635 10.7497 94.9762 16.8741 95.8275 23.7557C96.6788 30.6372 98.3688 38.2871 94.9253 43.937C91.4692 49.5868 82.8668 53.2366 74.5567 52.9881C66.2466 52.7395 58.2287 48.5699 53.6671 42.92C49.1181 37.2701 48.0381 30.14 49.8043 24.5692C51.5705 18.9985 56.183 15.0097 60.7447 10.5802C65.2936 6.16199 69.779 1.30311 75.4716 0.229634C81.1641 -0.83254 88.0511 1.89069 91.5073 6.32019Z" fill="#ECE1DC"/>
</g>
<path d="M74.1807 29.9728C74.1807 30.9008 74.1114 31.7275 73.9727 32.4528C73.834 33.1781 73.6047 33.7968 73.2847 34.3088C72.9754 34.8101 72.57 35.1941 72.0687 35.4608C71.578 35.7275 70.9754 35.8608 70.2607 35.8608C69.3647 35.8608 68.6287 35.6261 68.0527 35.1568C67.4767 34.6875 67.05 34.0155 66.7727 33.1408C66.4954 32.2555 66.3567 31.1995 66.3567 29.9728C66.3567 28.7461 66.4847 27.6955 66.7407 26.8208C66.9967 25.9461 67.4074 25.2741 67.9727 24.8048C68.5487 24.3355 69.3114 24.1008 70.2607 24.1008C71.1567 24.1008 71.8927 24.3355 72.4687 24.8048C73.0447 25.2635 73.4714 25.9355 73.7487 26.8208C74.0367 27.6955 74.1807 28.7461 74.1807 29.9728ZM68.3887 29.9888C68.3887 30.9168 68.4474 31.6955 68.5647 32.3248C68.682 32.9435 68.874 33.4128 69.1407 33.7328C69.418 34.0421 69.7914 34.1968 70.2607 34.1968C70.73 34.1968 71.098 34.0421 71.3647 33.7328C71.642 33.4235 71.8394 32.9541 71.9567 32.3248C72.0847 31.6955 72.1487 30.9168 72.1487 29.9888C72.1487 29.0501 72.0847 28.2715 71.9567 27.6528C71.8394 27.0235 71.642 26.5541 71.3647 26.2448C71.098 25.9248 70.73 25.7648 70.2607 25.7648C69.7914 25.7648 69.418 25.9248 69.1407 26.2448C68.874 26.5541 68.682 27.0181 68.5647 27.6368C68.4474 28.2555 68.3887 29.0395 68.3887 29.9888ZM81.1129 35.7008H79.0969V28.5808C79.0969 28.3461 79.0969 28.1061 79.0969 27.8608C79.1076 27.6155 79.1183 27.3701 79.1289 27.1248C79.1396 26.8688 79.1503 26.6341 79.1609 26.4208C79.0543 26.5275 78.9209 26.6555 78.7609 26.8048C78.6009 26.9435 78.4356 27.0875 78.2649 27.2368L76.9849 28.2608L75.9769 27.0128L79.4329 24.2768H81.1129V35.7008Z" fill="#A49B89"/>
<g filter="url(#filter1_d_7_396)">
<path d="M267.507 6.32019C270.963 10.7497 270.976 16.8741 271.828 23.7557C272.679 30.6372 274.369 38.2871 270.925 43.937C267.469 49.5868 258.867 53.2366 250.557 52.9881C242.247 52.7395 234.229 48.5699 229.667 42.92C225.118 37.2701 224.038 30.14 225.804 24.5692C227.571 18.9985 232.183 15.0097 236.745 10.5802C241.294 6.16199 245.779 1.30311 251.472 0.229634C257.164 -0.83254 264.051 1.89069 267.507 6.32019Z" fill="#ECE1DC"/>
</g>
<path d="M250.181 29.9728C250.181 30.9008 250.111 31.7275 249.973 32.4528C249.834 33.1781 249.605 33.7968 249.285 34.3088C248.975 34.8101 248.57 35.1941 248.069 35.4608C247.578 35.7275 246.975 35.8608 246.261 35.8608C245.365 35.8608 244.629 35.6261 244.053 35.1568C243.477 34.6875 243.05 34.0155 242.773 33.1408C242.495 32.2555 242.357 31.1995 242.357 29.9728C242.357 28.7461 242.485 27.6955 242.741 26.8208C242.997 25.9461 243.407 25.2741 243.973 24.8048C244.549 24.3355 245.311 24.1008 246.261 24.1008C247.157 24.1008 247.893 24.3355 248.469 24.8048C249.045 25.2635 249.471 25.9355 249.749 26.8208C250.037 27.6955 250.181 28.7461 250.181 29.9728ZM244.389 29.9888C244.389 30.9168 244.447 31.6955 244.565 32.3248C244.682 32.9435 244.874 33.4128 245.141 33.7328C245.418 34.0421 245.791 34.1968 246.261 34.1968C246.73 34.1968 247.098 34.0421 247.365 33.7328C247.642 33.4235 247.839 32.9541 247.957 32.3248C248.085 31.6955 248.149 30.9168 248.149 29.9888C248.149 29.0501 248.085 28.2715 247.957 27.6528C247.839 27.0235 247.642 26.5541 247.365 26.2448C247.098 25.9248 246.73 25.7648 246.261 25.7648C245.791 25.7648 245.418 25.9248 245.141 26.2448C244.874 26.5541 244.682 27.0181 244.565 27.6368C244.447 28.2555 244.389 29.0395 244.389 29.9888ZM259.369 35.7008H251.545V34.2128L254.457 31.2688C255.033 30.6821 255.502 30.1808 255.865 29.7648C256.238 29.3381 256.51 28.9435 256.681 28.5808C256.862 28.2181 256.953 27.8235 256.953 27.3968C256.953 26.8741 256.804 26.4848 256.505 26.2288C256.206 25.9621 255.812 25.8288 255.321 25.8288C254.841 25.8288 254.393 25.9301 253.977 26.1328C253.561 26.3248 253.129 26.6021 252.681 26.9648L251.577 25.6368C251.897 25.3595 252.238 25.1088 252.601 24.8848C252.964 24.6501 253.374 24.4635 253.833 24.3248C254.292 24.1861 254.825 24.1168 255.433 24.1168C256.169 24.1168 256.798 24.2501 257.321 24.5168C257.854 24.7728 258.265 25.1301 258.553 25.5888C258.841 26.0475 258.985 26.5808 258.985 27.1888C258.985 27.6581 258.916 28.0955 258.777 28.5008C258.638 28.8955 258.436 29.2848 258.169 29.6688C257.902 30.0528 257.577 30.4421 257.193 30.8368C256.809 31.2315 256.377 31.6581 255.897 32.1168L254.089 33.8608V33.9568H259.369V35.7008Z" fill="#A49B89"/>
<g filter="url(#filter2_d_7_396)">
<path d="M91.5073 137.32C94.9635 141.75 94.9762 147.874 95.8275 154.756C96.6788 161.637 98.3688 169.287 94.9253 174.937C91.4692 180.587 82.8668 184.237 74.5567 183.988C66.2466 183.739 58.2287 179.57 53.6671 173.92C49.1181 168.27 48.0381 161.14 49.8043 155.569C51.5705 149.998 56.183 146.01 60.7447 141.58C65.2936 137.162 69.779 132.303 75.4716 131.23C81.1641 130.167 88.0511 132.891 91.5073 137.32Z" fill="#ECE1DC"/>
</g>
<path d="M74.1807 160.973C74.1807 161.901 74.1114 162.727 73.9727 163.453C73.834 164.178 73.6047 164.797 73.2847 165.309C72.9754 165.81 72.57 166.194 72.0687 166.461C71.578 166.727 70.9754 166.861 70.2607 166.861C69.3647 166.861 68.6287 166.626 68.0527 166.157C67.4767 165.687 67.05 165.015 66.7727 164.141C66.4954 163.255 66.3567 162.199 66.3567 160.973C66.3567 159.746 66.4847 158.695 66.7407 157.821C66.9967 156.946 67.4074 156.274 67.9727 155.805C68.5487 155.335 69.3114 155.101 70.2607 155.101C71.1567 155.101 71.8927 155.335 72.4687 155.805C73.0447 156.263 73.4714 156.935 73.7487 157.821C74.0367 158.695 74.1807 159.746 74.1807 160.973ZM68.3887 160.989C68.3887 161.917 68.4474 162.695 68.5647 163.325C68.682 163.943 68.874 164.413 69.1407 164.733C69.418 165.042 69.7914 165.197 70.2607 165.197C70.73 165.197 71.098 165.042 71.3647 164.733C71.642 164.423 71.8394 163.954 71.9567 163.325C72.0847 162.695 72.1487 161.917 72.1487 160.989C72.1487 160.05 72.0847 159.271 71.9567 158.653C71.8394 158.023 71.642 157.554 71.3647 157.245C71.098 156.925 70.73 156.765 70.2607 156.765C69.7914 156.765 69.418 156.925 69.1407 157.245C68.874 157.554 68.682 158.018 68.5647 158.637C68.4474 159.255 68.3887 160.039 68.3887 160.989ZM82.9209 157.885C82.9209 158.397 82.8143 158.845 82.6009 159.229C82.3983 159.613 82.1156 159.927 81.7529 160.173C81.3903 160.407 80.9689 160.578 80.4889 160.685V160.733C81.4063 160.839 82.0996 161.122 82.5689 161.581C83.0383 162.039 83.2729 162.647 83.2729 163.405C83.2729 164.066 83.1129 164.658 82.7929 165.181C82.4729 165.703 81.9769 166.114 81.3049 166.413C80.6436 166.711 79.7903 166.861 78.7449 166.861C78.1263 166.861 77.5503 166.807 77.0169 166.701C76.4836 166.605 75.9823 166.45 75.5129 166.237V164.461C75.9929 164.706 76.5049 164.893 77.0489 165.021C77.5929 165.149 78.1049 165.213 78.5849 165.213C79.5129 165.213 80.1689 165.047 80.5529 164.717C80.9369 164.375 81.1289 163.906 81.1289 163.309C81.1289 162.925 81.0329 162.61 80.8409 162.365C80.6489 162.119 80.3343 161.938 79.8969 161.821C79.4703 161.693 78.9103 161.629 78.2169 161.629H77.2569V160.013H78.2329C78.9049 160.013 79.4329 159.938 79.8169 159.789C80.2116 159.639 80.4889 159.431 80.6489 159.165C80.8196 158.898 80.9049 158.589 80.9049 158.237C80.9049 157.778 80.7556 157.421 80.4569 157.165C80.1583 156.909 79.7103 156.781 79.1129 156.781C78.7289 156.781 78.3823 156.823 78.0729 156.909C77.7636 156.994 77.4809 157.106 77.2249 157.245C76.9689 157.373 76.7289 157.511 76.5049 157.661L75.5449 156.269C75.8329 156.055 76.1583 155.863 76.5209 155.693C76.8836 155.511 77.2889 155.373 77.7369 155.277C78.1849 155.17 78.6756 155.117 79.2089 155.117C80.3929 155.117 81.3049 155.367 81.9449 155.869C82.5956 156.359 82.9209 157.031 82.9209 157.885Z" fill="#A49B89"/>
<g filter="url(#filter3_d_7_396)">
<path d="M267.507 137.32C270.963 141.75 270.976 147.874 271.828 154.756C272.679 161.637 274.369 169.287 270.925 174.937C267.469 180.587 258.867 184.237 250.557 183.988C242.247 183.739 234.229 179.57 229.667 173.92C225.118 168.27 224.038 161.14 225.804 155.569C227.571 149.998 232.183 146.01 236.745 141.58C241.294 137.162 245.779 132.303 251.472 131.23C257.164 130.167 264.051 132.891 267.507 137.32Z" fill="#ECE1DC"/>
</g>
<path d="M250.181 160.973C250.181 161.901 250.111 162.727 249.973 163.453C249.834 164.178 249.605 164.797 249.285 165.309C248.975 165.81 248.57 166.194 248.069 166.461C247.578 166.727 246.975 166.861 246.261 166.861C245.365 166.861 244.629 166.626 244.053 166.157C243.477 165.687 243.05 165.015 242.773 164.141C242.495 163.255 242.357 162.199 242.357 160.973C242.357 159.746 242.485 158.695 242.741 157.821C242.997 156.946 243.407 156.274 243.973 155.805C244.549 155.335 245.311 155.101 246.261 155.101C247.157 155.101 247.893 155.335 248.469 155.805C249.045 156.263 249.471 156.935 249.749 157.821C250.037 158.695 250.181 159.746 250.181 160.973ZM244.389 160.989C244.389 161.917 244.447 162.695 244.565 163.325C244.682 163.943 244.874 164.413 245.141 164.733C245.418 165.042 245.791 165.197 246.261 165.197C246.73 165.197 247.098 165.042 247.365 164.733C247.642 164.423 247.839 163.954 247.957 163.325C248.085 162.695 248.149 161.917 248.149 160.989C248.149 160.05 248.085 159.271 247.957 158.653C247.839 158.023 247.642 157.554 247.365 157.245C247.098 156.925 246.73 156.765 246.261 156.765C245.791 156.765 245.418 156.925 245.141 157.245C244.874 157.554 244.682 158.018 244.565 158.637C244.447 159.255 244.389 160.039 244.389 160.989ZM259.721 164.253H258.233V166.701H256.249V164.253H251.161V162.749L256.297 155.245H258.233V162.605H259.721V164.253ZM256.249 160.045C256.249 159.821 256.249 159.591 256.249 159.357C256.26 159.111 256.27 158.871 256.281 158.637C256.292 158.402 256.302 158.189 256.313 157.997C256.324 157.805 256.334 157.655 256.345 157.549H256.281C256.185 157.751 256.078 157.965 255.961 158.189C255.854 158.402 255.732 158.605 255.593 158.797L253.001 162.605H256.249V160.045Z" fill="#A49B89"/>
<path d="M211.739 209.48C211.923 208.536 211.923 207.824 211.923 207.352V206.976H208.355V207.512H211.283C211.283 207.968 211.259 208.584 211.091 209.408L211.739 209.48ZM212.419 209.912C211.691 210.008 210.875 210.072 210.091 210.104V208.576H209.443V210.128C208.899 210.136 208.379 210.144 207.923 210.144L207.987 210.68C209.259 210.68 210.979 210.64 212.467 210.392L212.419 209.912ZM209.675 211.328H209.019V213.432H213.787V212.896H209.675V211.328ZM213.555 208.752V206.416H212.899V211.824H213.555V209.296H214.579V208.752H213.555ZM220.578 211.696H221.242V206.424H220.578V207.632H219.186V208.16H220.578V209.232H219.186V209.768H220.578V211.696ZM219.13 210.016C218.274 210.168 217.554 210.2 216.274 210.2V209.024H218.706V206.928H215.61V207.456H218.05V208.512H215.626V210.736H216.146C217.53 210.736 218.282 210.712 219.194 210.552L219.13 210.016ZM217.25 212.872V211.312H216.594V213.4H221.458V212.872H217.25ZM227.328 207.696H229.016V207.152H225.008V207.696H226.672V208.608C226.672 209.848 225.8 211.2 224.768 211.688L225.152 212.216C225.968 211.8 226.672 210.896 227 209.848C227.344 210.832 228.048 211.656 228.88 212.04L229.248 211.512C228.192 211.064 227.328 209.824 227.328 208.608V207.696ZM229.984 206.424V213.592H230.64V206.424H229.984ZM236.455 209.792C235.391 209.424 234.655 208.488 234.655 207.456V206.752H233.999V207.456C233.999 208.528 233.271 209.528 232.191 209.92L232.527 210.44C233.367 210.12 234.023 209.456 234.335 208.608C234.655 209.4 235.303 210.016 236.127 210.312L236.455 209.792ZM233.215 211.632H237.359V213.6H238.015V211.104H233.215V211.632ZM237.359 206.424V210.736H238.015V206.424H237.359ZM243.231 210.44C243.431 209.104 243.431 208.168 243.431 207.592V207.2H239.807V207.736H242.791C242.791 208.312 242.775 209.184 242.575 210.376L243.231 210.44ZM241.583 209.248H240.935V211.456C240.399 211.472 239.871 211.48 239.415 211.48L239.487 212.024C240.759 212.024 242.447 211.992 243.935 211.752L243.895 211.272C243.167 211.36 242.367 211.408 241.583 211.44V209.248ZM246.135 209.416H244.991V206.416H244.335V213.592H244.991V209.968H246.135V209.416ZM254.172 208.272V209.232H252.292V209.768H254.172V210.712H254.836V206.424H254.172V207.736H252.548C252.596 207.488 252.628 207.224 252.628 206.96H249.388V207.488H251.916C251.796 208.728 250.732 209.68 249.02 210.192L249.284 210.712C250.828 210.264 251.916 209.424 252.38 208.272H254.172ZM252.492 213.048C251.436 213.048 250.764 212.72 250.764 212.176C250.764 211.64 251.436 211.312 252.492 211.312C253.548 211.312 254.22 211.64 254.22 212.176C254.22 212.72 253.548 213.048 252.492 213.048ZM252.492 210.792C251.044 210.792 250.116 211.312 250.116 212.176C250.116 213.04 251.044 213.56 252.492 213.56C253.94 213.56 254.868 213.04 254.868 212.176C254.868 211.312 253.94 210.792 252.492 210.792ZM260.451 207.168H258.699V206.344H258.043V207.168H256.291V207.696H260.451V207.168ZM257.331 209.344C257.331 208.88 257.763 208.56 258.371 208.56C258.979 208.56 259.411 208.88 259.411 209.344C259.411 209.808 258.979 210.128 258.371 210.128C257.763 210.128 257.331 209.808 257.331 209.344ZM260.027 209.344C260.027 208.576 259.339 208.064 258.371 208.064C257.395 208.064 256.707 208.576 256.707 209.344C256.707 210.112 257.395 210.616 258.371 210.616C259.339 210.616 260.027 210.112 260.027 209.344ZM258.171 211.664H261.555V212.968H258.171V211.664ZM257.531 213.496H262.195V211.144H257.531V213.496ZM261.531 206.424V208.6H260.339V209.136H261.531V210.76H262.195V206.424H261.531ZM268.859 206.416V213.608H269.515V206.416H268.859ZM265.731 206.968C264.667 206.968 263.907 207.944 263.907 209.472C263.907 211 264.667 211.976 265.731 211.976C266.795 211.976 267.555 211 267.555 209.472C267.555 207.944 266.795 206.968 265.731 206.968ZM265.731 207.56C266.427 207.56 266.923 208.312 266.923 209.472C266.923 210.64 266.427 211.392 265.731 211.392C265.027 211.392 264.531 210.64 264.531 209.472C264.531 208.312 265.027 207.56 265.731 207.56ZM276.032 209.296H274.016V207.408H276.032V209.296ZM276.672 206.88H273.376V209.816H276.672V206.88ZM274.472 210.736H273.832V213.408H274.176C274.664 213.408 275.336 213.368 276.016 213.144L275.912 212.624C275.416 212.784 274.888 212.848 274.472 212.864V210.736ZM277.56 213.12C277.12 213.12 276.816 212.904 276.816 212.568C276.816 212.24 277.12 212.032 277.56 212.032C277.992 212.032 278.304 212.24 278.304 212.568C278.304 212.904 277.992 213.12 277.56 213.12ZM277.56 211.56C276.784 211.56 276.232 211.952 276.232 212.568C276.232 213.192 276.784 213.584 277.56 213.584C278.336 213.584 278.888 213.192 278.888 212.568C278.888 211.952 278.336 211.56 277.56 211.56ZM277.88 210.176H277.24V210.808H275.752V211.296H279.36V210.808H277.88V210.176ZM278.648 208.024V206.416H277.992V210.072H278.648V208.576H279.712V208.024H278.648ZM285.504 207.848C285.504 208.712 285.504 209.72 285.232 211.096L285.888 211.168C286.16 209.72 286.16 208.736 286.16 207.848V207.136H281.128V207.672H285.504V207.848ZM283.624 212.048V209.48H282.968V212.048H280.448V212.584H286.936V212.048H283.624ZM188.335 218.768H189.839V222.144H188.335V218.768ZM187.719 222.664H190.447V218.248H187.719V222.664ZM192.935 217.416V220.256H191.967V217.576H191.351V224.232H191.967V220.792H192.935V224.584H193.559V217.416H192.935ZM198.054 218.232C199.15 218.232 199.894 218.64 199.894 219.272C199.894 219.912 199.15 220.32 198.054 220.32C196.966 220.32 196.222 219.912 196.222 219.272C196.222 218.64 196.966 218.232 198.054 218.232ZM198.054 220.848C199.55 220.848 200.566 220.24 200.566 219.272C200.566 218.312 199.55 217.704 198.054 217.704C196.566 217.704 195.55 218.312 195.55 219.272C195.55 220.24 196.566 220.848 198.054 220.848ZM201.318 221.528H194.822V222.072H197.726V224.6H198.382V222.072H201.318V221.528ZM207.492 218.232C208.588 218.232 209.332 218.632 209.332 219.264C209.332 219.896 208.588 220.304 207.492 220.304C206.404 220.304 205.66 219.896 205.66 219.264C205.66 218.632 206.404 218.232 207.492 218.232ZM207.492 220.832C208.988 220.832 210.004 220.224 210.004 219.264C210.004 218.304 208.988 217.704 207.492 217.704C206.004 217.704 204.988 218.304 204.988 219.264C204.988 220.224 206.004 220.832 207.492 220.832ZM210.756 221.504H204.26V222.04H205.932V224.592H206.596V222.04H208.396V224.592H209.06V222.04H210.756V221.504ZM217.371 219.416H213.155V217.568H212.499V219.944H217.371V219.416ZM214.859 224.056C213.731 224.056 213.067 223.76 213.067 223.264C213.067 222.752 213.731 222.464 214.859 222.464C215.987 222.464 216.651 222.752 216.651 223.264C216.651 223.76 215.979 224.056 214.859 224.056ZM214.859 221.952C213.331 221.952 212.403 222.424 212.403 223.264C212.403 224.096 213.331 224.568 214.859 224.568C216.387 224.568 217.315 224.096 217.315 223.264C217.315 222.424 216.387 221.952 214.859 221.952ZM211.627 220.776V221.312H218.115V220.776H211.627ZM221.083 222.448C220.435 222.448 219.963 221.984 219.963 221.344C219.963 220.696 220.435 220.232 221.083 220.232C221.739 220.232 222.211 220.696 222.211 221.344C222.211 221.984 221.739 222.448 221.083 222.448ZM221.083 219.688C220.075 219.688 219.347 220.376 219.347 221.344C219.347 222.32 220.075 222.992 221.083 222.992C222.107 222.992 222.835 222.32 222.835 221.344C222.835 220.376 222.107 219.688 221.083 219.688ZM221.403 217.504H220.747V218.568H218.939V219.096H223.171V218.568H221.403V217.504ZM225.683 220.368H224.507V217.424H223.851V224.592H224.507V220.92H225.683V220.368ZM229.89 221.112V219.672H231.594V221.112H229.89ZM229.242 222.256H227.266V218.64H229.242V222.256ZM231.594 217.416V219.136H229.89V218.12H226.626V222.776H229.89V221.648H231.594V224.608H232.25V217.416H231.594ZM234.809 223.16C234.761 223.347 234.7 223.549 234.625 223.768C234.551 223.987 234.468 224.203 234.377 224.416C234.292 224.635 234.207 224.84 234.121 225.032H233.601C233.655 224.829 233.705 224.611 233.753 224.376C233.807 224.147 233.855 223.92 233.897 223.696C233.94 223.467 233.975 223.259 234.001 223.072H234.753L234.809 223.16ZM238.876 218.648H241.556V218.104H238.22V222.816H238.788C240.14 222.816 241.084 222.768 242.18 222.56L242.108 222.016C241.068 222.2 240.148 222.256 238.876 222.256V218.648ZM244.62 220.248H243.436V217.416H242.78V224.608H243.436V220.792H244.62V220.248ZM250.3 218.952H246.108V220.736H251.1V220.224H246.756V219.44H250.948V217.656H246.092V218.168H250.3V218.952ZM246.78 222.48H246.124V224.432H251.1V223.896H246.78V222.48ZM245.268 221.392V221.928H251.78V221.392H245.268ZM257.121 218.04H256.473V219.328C256.473 220.632 255.657 222.008 254.625 222.536L255.017 223.064C255.825 222.632 256.489 221.736 256.801 220.688C257.129 221.672 257.777 222.512 258.537 222.92L258.945 222.4C257.937 221.896 257.121 220.592 257.121 219.328V218.04ZM261.417 220.328H260.233V217.424H259.577V224.592H260.233V220.872H261.417V220.328ZM266.296 220.552C265.208 220.744 264.288 220.784 263.032 220.784V219.768H265.6V217.808H262.368V218.344H264.952V219.264H262.384V221.32H262.952C264.272 221.32 265.224 221.28 266.36 221.088L266.296 220.552ZM263.76 222.568H267V223.968H263.76V222.568ZM263.12 224.496H267.64V222.048H263.12V224.496ZM268.704 219.256H267.64V217.424H266.984V221.696H267.64V219.8H268.704V219.256ZM272.672 218.032C273.848 218.032 274.52 218.304 274.52 218.784C274.52 219.264 273.848 219.536 272.672 219.536C271.496 219.536 270.824 219.264 270.824 218.784C270.824 218.304 271.496 218.032 272.672 218.032ZM272.672 220.024C274.248 220.024 275.192 219.592 275.192 218.784C275.192 217.976 274.248 217.536 272.672 217.536C271.096 217.536 270.152 217.976 270.152 218.784C270.152 219.592 271.096 220.024 272.672 220.024ZM270.872 223.272H275.088V221.656H270.208V222.152H274.44V222.792H270.232V224.512H275.304V224H270.872V223.272ZM269.424 220.512V221.04H275.92V220.512H269.424ZM279.941 220.64H282.589V218.08H279.261V218.616H281.925V220.112H279.285V222.864H279.877C281.109 222.864 282.197 222.816 283.493 222.6L283.429 222.064C282.173 222.264 281.117 222.32 279.941 222.32V220.64ZM284.101 217.408V224.6H284.757V217.408H284.101ZM291.981 220.856H287.701V218.616H291.909V218.072H287.053V221.392H291.981V220.856ZM286.221 223.08V223.624H292.733V223.08H286.221ZM295.692 222.448C295.044 222.448 294.572 221.984 294.572 221.344C294.572 220.696 295.044 220.232 295.692 220.232C296.348 220.232 296.82 220.696 296.82 221.344C296.82 221.984 296.348 222.448 295.692 222.448ZM295.692 219.688C294.684 219.688 293.956 220.376 293.956 221.344C293.956 222.32 294.684 222.992 295.692 222.992C296.716 222.992 297.444 222.32 297.444 221.344C297.444 220.376 296.716 219.688 295.692 219.688ZM296.012 217.504H295.356V218.568H293.548V219.096H297.78V218.568H296.012V217.504ZM300.292 220.368H299.116V217.424H298.46V224.592H299.116V220.92H300.292V220.368ZM306.011 218.848C306.011 219.712 306.011 220.72 305.739 222.096L306.395 222.168C306.667 220.72 306.667 219.736 306.667 218.848V218.136H301.635V218.672H306.011V218.848ZM304.131 223.048V220.48H303.475V223.048H300.955V223.584H307.443V223.048H304.131ZM209.363 229.928C209.363 230.816 209.363 231.76 209.115 233.04L209.763 233.12C210.019 231.776 210.019 230.84 210.019 229.928V229.136H204.963V229.672H209.363V229.928ZM208.307 234.048V231.672H207.659V234.048H206.531V231.672H205.883V234.048H204.291V234.584H210.779V234.048H208.307ZM214.891 229.104C216.027 229.104 216.739 229.424 216.739 229.96C216.739 230.496 216.027 230.816 214.891 230.816C213.755 230.816 213.043 230.496 213.043 229.96C213.043 229.424 213.755 229.104 214.891 229.104ZM214.891 231.328C216.443 231.328 217.411 230.824 217.411 229.96C217.411 229.096 216.443 228.584 214.891 228.584C213.347 228.584 212.371 229.096 212.371 229.96C212.371 230.824 213.347 231.328 214.891 231.328ZM215.771 233.312H214.019V232.4H215.771V233.312ZM218.139 232.4V231.872H211.651V232.4H213.363V233.312H212.371V233.84H216.683V235.6H217.339V233.312H216.427V232.4H218.139ZM223.266 229.072H221.474V228.344H220.818V229.072H219.034V229.576H223.266V229.072ZM220.058 231.072C220.058 230.64 220.482 230.384 221.146 230.384C221.81 230.384 222.242 230.64 222.242 231.072C222.242 231.496 221.81 231.76 221.146 231.76C220.482 231.76 220.058 231.496 220.058 231.072ZM222.866 231.072C222.866 230.344 222.186 229.896 221.146 229.896C220.114 229.896 219.434 230.344 219.434 231.072C219.434 231.8 220.114 232.248 221.146 232.248C222.186 232.248 222.866 231.8 222.866 231.072ZM220.682 234.32H224.578V232.728H220.018V233.216H223.93V233.84H220.042V235.512H224.842V235.008H220.682V234.32ZM224.578 230.12V228.392H223.922V232.36H224.578V230.664H225.642V230.12H224.578ZM234.623 231.152C233.319 230.96 232.039 230.072 232.039 229.072V228.672H231.351V229.072C231.351 230.096 230.087 230.96 228.783 231.152L229.047 231.68C230.167 231.488 231.247 230.872 231.695 230C232.159 230.864 233.239 231.488 234.351 231.68L234.623 231.152ZM234.935 232.456H228.455V233H231.351V235.6H232.007V233H234.943L234.935 232.456ZM243.773 228.424H243.117V232.52H243.773V228.424ZM239.917 229.384C240.629 229.384 241.157 229.856 241.157 230.512C241.157 231.176 240.629 231.64 239.917 231.64C239.205 231.64 238.693 231.176 238.693 230.512C238.693 229.856 239.205 229.384 239.917 229.384ZM239.917 232.184C241.005 232.184 241.797 231.504 241.797 230.512C241.797 229.52 241.005 228.84 239.917 228.84C238.837 228.84 238.053 229.52 238.053 230.512C238.053 231.504 238.837 232.184 239.917 232.184ZM242.973 232.832H242.333V233.216C242.333 233.776 241.989 234.496 241.301 234.92C240.637 234.528 240.309 233.848 240.309 233.216V232.832H239.677V233.216C239.677 233.904 239.141 234.68 238.237 235L238.565 235.496C239.237 235.24 239.725 234.744 239.981 234.168C240.197 234.768 240.629 235.288 241.317 235.56C241.981 235.272 242.421 234.728 242.645 234.144C242.885 234.744 243.381 235.24 244.085 235.496L244.413 235C243.501 234.696 242.973 233.96 242.973 233.216V232.832ZM250.996 230.576H246.772V228.68H246.116V231.112H250.996V230.576ZM246.724 233.32H246.068V235.416H251.036V234.88H246.724V233.32ZM245.236 232.072V232.6H251.74V232.072H245.236ZM258.514 230.28V230.816H259.93V232.696H260.594V228.424H259.93V230.28H258.514ZM258.914 231.912C257.874 231.544 257.17 230.64 257.17 229.72V229.472H258.746V228.944H254.914V229.472H256.514V229.72C256.514 230.752 255.778 231.72 254.706 232.112L255.05 232.632C255.89 232.312 256.554 231.64 256.858 230.808C257.17 231.544 257.786 232.136 258.586 232.424L258.914 231.912ZM258.226 235.08C257.146 235.08 256.49 234.776 256.49 234.256C256.49 233.736 257.146 233.424 258.226 233.424C259.306 233.424 259.962 233.736 259.962 234.256C259.962 234.776 259.306 235.08 258.226 235.08ZM258.226 232.92C256.754 232.92 255.834 233.408 255.834 234.256C255.834 235.104 256.754 235.592 258.226 235.592C259.698 235.592 260.618 235.104 260.618 234.256C260.618 233.408 259.698 232.92 258.226 232.92ZM265.617 234.144V232.304H267.801V231.776H263.521V229.528H267.729V228.992H262.865V232.304H264.953V234.144H262.033V234.688H268.553V234.144H265.617ZM271.729 228.944C270.617 228.944 269.809 229.624 269.809 230.632C269.809 231.632 270.617 232.32 271.729 232.32C272.849 232.32 273.649 231.632 273.649 230.632C273.649 229.624 272.849 228.944 271.729 228.944ZM271.729 229.504C272.473 229.504 273.009 229.96 273.009 230.632C273.009 231.296 272.473 231.76 271.729 231.76C270.993 231.76 270.449 231.296 270.449 230.632C270.449 229.96 270.993 229.504 271.729 229.504ZM274.593 228.416V235.608H275.249V228.416H274.593ZM269.529 234.032C270.825 234.032 272.561 234.016 274.177 233.72L274.121 233.232C272.553 233.472 270.753 233.48 269.449 233.48L269.529 234.032ZM285.014 231.152C283.71 230.96 282.43 230.072 282.43 229.072V228.672H281.742V229.072C281.742 230.096 280.478 230.96 279.174 231.152L279.438 231.68C280.558 231.488 281.638 230.872 282.086 230C282.55 230.864 283.63 231.488 284.742 231.68L285.014 231.152ZM285.326 232.456H278.846V233H281.742V235.6H282.398V233H285.334L285.326 232.456ZM286.837 231.592C287.997 231.416 289.053 230.84 289.445 230.008C289.829 230.84 290.885 231.416 292.053 231.592L292.293 231.064C291.029 230.896 289.869 230.184 289.869 229.312V229.304H292.101V228.776H286.789V229.304H289.021V229.312C289.021 230.184 287.861 230.896 286.589 231.064L286.837 231.592ZM287.669 233.4H287.013V235.432H291.973V234.896H287.669V233.4ZM286.181 232.112V232.64H289.165V234.096H289.821V232.64H292.693V232.112H286.181Z" fill="#818181"/>
<path d="M29.4186 209.48C29.6026 208.536 29.6026 207.824 29.6026 207.352V206.976H26.0346V207.512H28.9626C28.9626 207.968 28.9386 208.584 28.7706 209.408L29.4186 209.48ZM30.0986 209.912C29.3706 210.008 28.5546 210.072 27.7706 210.104V208.576H27.1226V210.128C26.5786 210.136 26.0586 210.144 25.6026 210.144L25.6666 210.68C26.9386 210.68 28.6586 210.64 30.1466 210.392L30.0986 209.912ZM27.3546 211.328H26.6986V213.432H31.4666V212.896H27.3546V211.328ZM31.2346 208.752V206.416H30.5786V211.824H31.2346V209.296H32.2586V208.752H31.2346ZM38.2579 211.696H38.9219V206.424H38.2579V207.632H36.8659V208.16H38.2579V209.232H36.8659V209.768H38.2579V211.696ZM36.8099 210.016C35.9539 210.168 35.2339 210.2 33.9539 210.2V209.024H36.3859V206.928H33.2899V207.456H35.7299V208.512H33.3059V210.736H33.8259C35.2099 210.736 35.9619 210.712 36.8739 210.552L36.8099 210.016ZM34.9299 212.872V211.312H34.2739V213.4H39.1379V212.872H34.9299ZM45.0074 207.696H46.6954V207.152H42.6874V207.696H44.3514V208.608C44.3514 209.848 43.4794 211.2 42.4474 211.688L42.8314 212.216C43.6474 211.8 44.3514 210.896 44.6794 209.848C45.0234 210.832 45.7274 211.656 46.5594 212.04L46.9274 211.512C45.8714 211.064 45.0074 209.824 45.0074 208.608V207.696ZM47.6634 206.424V213.592H48.3194V206.424H47.6634ZM54.1348 209.792C53.0708 209.424 52.3348 208.488 52.3348 207.456V206.752H51.6788V207.456C51.6788 208.528 50.9508 209.528 49.8708 209.92L50.2068 210.44C51.0468 210.12 51.7028 209.456 52.0148 208.608C52.3348 209.4 52.9828 210.016 53.8068 210.312L54.1348 209.792ZM50.8948 211.632H55.0388V213.6H55.6948V211.104H50.8948V211.632ZM55.0388 206.424V210.736H55.6948V206.424H55.0388ZM60.9102 210.44C61.1102 209.104 61.1102 208.168 61.1102 207.592V207.2H57.4862V207.736H60.4702C60.4702 208.312 60.4542 209.184 60.2542 210.376L60.9102 210.44ZM59.2622 209.248H58.6142V211.456C58.0782 211.472 57.5502 211.48 57.0942 211.48L57.1662 212.024C58.4382 212.024 60.1262 211.992 61.6142 211.752L61.5742 211.272C60.8462 211.36 60.0462 211.408 59.2622 211.44V209.248ZM63.8142 209.416H62.6702V206.416H62.0142V213.592H62.6702V209.968H63.8142V209.416ZM71.8517 208.272V209.232H69.9717V209.768H71.8517V210.712H72.5157V206.424H71.8517V207.736H70.2277C70.2757 207.488 70.3077 207.224 70.3077 206.96H67.0677V207.488H69.5957C69.4757 208.728 68.4117 209.68 66.6997 210.192L66.9637 210.712C68.5077 210.264 69.5957 209.424 70.0597 208.272H71.8517ZM70.1717 213.048C69.1157 213.048 68.4437 212.72 68.4437 212.176C68.4437 211.64 69.1157 211.312 70.1717 211.312C71.2277 211.312 71.8997 211.64 71.8997 212.176C71.8997 212.72 71.2277 213.048 70.1717 213.048ZM70.1717 210.792C68.7237 210.792 67.7957 211.312 67.7957 212.176C67.7957 213.04 68.7237 213.56 70.1717 213.56C71.6197 213.56 72.5477 213.04 72.5477 212.176C72.5477 211.312 71.6197 210.792 70.1717 210.792ZM78.1311 207.168H76.3791V206.344H75.7231V207.168H73.9711V207.696H78.1311V207.168ZM75.0111 209.344C75.0111 208.88 75.4431 208.56 76.0511 208.56C76.6591 208.56 77.0911 208.88 77.0911 209.344C77.0911 209.808 76.6591 210.128 76.0511 210.128C75.4431 210.128 75.0111 209.808 75.0111 209.344ZM77.7071 209.344C77.7071 208.576 77.0191 208.064 76.0511 208.064C75.0751 208.064 74.3871 208.576 74.3871 209.344C74.3871 210.112 75.0751 210.616 76.0511 210.616C77.0191 210.616 77.7071 210.112 77.7071 209.344ZM75.8511 211.664H79.2351V212.968H75.8511V211.664ZM75.2111 213.496H79.8751V211.144H75.2111V213.496ZM79.2111 206.424V208.6H78.0191V209.136H79.2111V210.76H79.8751V206.424H79.2111ZM86.5384 206.416V213.608H87.1944V206.416H86.5384ZM83.4104 206.968C82.3464 206.968 81.5864 207.944 81.5864 209.472C81.5864 211 82.3464 211.976 83.4104 211.976C84.4744 211.976 85.2344 211 85.2344 209.472C85.2344 207.944 84.4744 206.968 83.4104 206.968ZM83.4104 207.56C84.1064 207.56 84.6024 208.312 84.6024 209.472C84.6024 210.64 84.1064 211.392 83.4104 211.392C82.7064 211.392 82.2104 210.64 82.2104 209.472C82.2104 208.312 82.7064 207.56 83.4104 207.56ZM94.8879 208.72H93.1039V207.216H94.8879V208.72ZM92.4479 208.72H91.3919V209.248H96.5999V208.72H95.5439V207.216H96.6319V206.68H91.3679V207.216H92.4479V208.72ZM95.7919 212.36C95.7919 212.824 95.1279 213.088 94.0079 213.088C92.8719 213.088 92.2079 212.824 92.2079 212.36C92.2079 211.896 92.8719 211.632 94.0079 211.632C95.1279 211.632 95.7919 211.896 95.7919 212.36ZM97.2479 210.448V209.912H90.7599V210.448H93.6799V211.144C92.3359 211.2 91.5439 211.616 91.5439 212.36C91.5439 213.152 92.4559 213.584 94.0079 213.584C95.5359 213.584 96.4559 213.152 96.4559 212.36C96.4559 211.624 95.6719 211.208 94.3359 211.144V210.448H97.2479ZM103.143 209.272H99.5833V208.216H103.143V209.272ZM103.799 206.704H103.143V207.688H99.5833V206.704H98.9353V209.808H103.799V206.704ZM104.623 210.672H98.1113V211.2H101.023V213.6H101.679V211.2H104.623V210.672ZM107.583 211.448C106.935 211.448 106.463 210.984 106.463 210.344C106.463 209.696 106.935 209.232 107.583 209.232C108.239 209.232 108.711 209.696 108.711 210.344C108.711 210.984 108.239 211.448 107.583 211.448ZM107.583 208.688C106.575 208.688 105.847 209.376 105.847 210.344C105.847 211.32 106.575 211.992 107.583 211.992C108.607 211.992 109.335 211.32 109.335 210.344C109.335 209.376 108.607 208.688 107.583 208.688ZM107.903 206.504H107.247V207.568H105.439V208.096H109.671V207.568H107.903V206.504ZM112.183 209.368H111.007V206.424H110.351V213.592H111.007V209.92H112.183V209.368ZM116.39 210.112V208.672H118.094V210.112H116.39ZM115.742 211.256H113.766V207.64H115.742V211.256ZM118.094 206.416V208.136H116.39V207.12H113.126V211.776H116.39V210.648H118.094V213.608H118.75V206.416H118.094ZM30.3323 219.416H26.1163V217.568H25.4603V219.944H30.3323V219.416ZM27.8203 224.056C26.6923 224.056 26.0283 223.76 26.0283 223.264C26.0283 222.752 26.6923 222.464 27.8203 222.464C28.9483 222.464 29.6123 222.752 29.6123 223.264C29.6123 223.76 28.9403 224.056 27.8203 224.056ZM27.8203 221.952C26.2923 221.952 25.3643 222.424 25.3643 223.264C25.3643 224.096 26.2923 224.568 27.8203 224.568C29.3483 224.568 30.2763 224.096 30.2763 223.264C30.2763 222.424 29.3483 221.952 27.8203 221.952ZM24.5883 220.776V221.312H31.0763V220.776H24.5883ZM38.0516 219.728C36.7876 219.552 35.5236 218.744 35.5236 217.832V217.512H34.8516V217.832C34.8516 218.76 33.5956 219.552 32.3156 219.728L32.5636 220.248C33.6756 220.064 34.7396 219.496 35.1876 218.68C35.6436 219.488 36.6996 220.072 37.8116 220.248L38.0516 219.728ZM38.4276 221.344V220.816H31.9396V221.344H34.8516V222.256H32.6596V222.784H36.9716V224.6H37.6276V222.256H35.5076V221.344H38.4276ZM41.403 222.448C40.755 222.448 40.283 221.984 40.283 221.344C40.283 220.696 40.755 220.232 41.403 220.232C42.059 220.232 42.531 220.696 42.531 221.344C42.531 221.984 42.059 222.448 41.403 222.448ZM41.403 219.688C40.395 219.688 39.667 220.376 39.667 221.344C39.667 222.32 40.395 222.992 41.403 222.992C42.427 222.992 43.155 222.32 43.155 221.344C43.155 220.376 42.427 219.688 41.403 219.688ZM41.723 217.504H41.067V218.568H39.259V219.096H43.491V218.568H41.723V217.504ZM46.003 220.368H44.827V217.424H44.171V224.592H44.827V220.92H46.003V220.368ZM50.6344 220.352H49.3944C49.6344 219.712 49.7384 219.032 49.7384 218.328H46.9704V218.864H49.0904C48.9704 220.368 48.2024 221.656 46.6664 222.576L47.0504 223.048C48.0424 222.456 48.7304 221.712 49.1624 220.88H50.6344V224.232H51.2584V217.608H50.6344V220.352ZM52.1304 217.416V224.592H52.7544V217.416H52.1304ZM61.3519 223.968H58.0639V223.04H61.3519V223.968ZM61.3519 222.528H58.0639V221.616H57.4159V224.496H62.0079V221.616H61.3519V222.528ZM58.0559 220.528C57.3439 220.528 56.8319 220.064 56.8319 219.408C56.8319 218.752 57.3439 218.296 58.0559 218.296C58.7679 218.296 59.2799 218.752 59.2799 219.408C59.2799 220.064 58.7679 220.528 58.0559 220.528ZM61.3439 217.424V219.128H59.8799C59.7439 218.296 59.0239 217.752 58.0559 217.752C56.9839 217.752 56.2079 218.424 56.2079 219.408C56.2079 220.4 56.9839 221.072 58.0559 221.072C59.0399 221.072 59.7599 220.512 59.8879 219.664H61.3439V221.272H62.0079V217.424H61.3439ZM68.4793 220.088H64.9193V218.344H68.4793V220.088ZM69.1273 217.816H64.2793V220.608H69.1273V217.816ZM69.9593 221.584H63.4473V222.112H66.3593V224.584H67.0153V222.112H69.9593V221.584ZM71.1986 218.184V218.728H73.8306C73.6786 220.424 72.6946 221.8 70.8626 222.72L71.2226 223.232C73.5426 222.072 74.4786 220.224 74.4786 218.184H71.1986ZM77.4866 220.328H76.3346V217.416H75.6786V224.592H76.3346V220.872H77.4866V220.328ZM80.6361 218.184V218.728H83.2681C83.1161 220.424 82.1321 221.8 80.3001 222.72L80.6601 223.232C82.9801 222.072 83.9161 220.224 83.9161 218.184H80.6361ZM86.9241 220.328H85.7721V217.416H85.1161V224.592H85.7721V220.872H86.9241V220.328ZM93.3635 219.416H89.1475V217.568H88.4915V219.944H93.3635V219.416ZM90.8515 224.056C89.7235 224.056 89.0595 223.76 89.0595 223.264C89.0595 222.752 89.7235 222.464 90.8515 222.464C91.9795 222.464 92.6435 222.752 92.6435 223.264C92.6435 223.76 91.9715 224.056 90.8515 224.056ZM90.8515 221.952C89.3235 221.952 88.3955 222.424 88.3955 223.264C88.3955 224.096 89.3235 224.568 90.8515 224.568C92.3795 224.568 93.3075 224.096 93.3075 223.264C93.3075 222.424 92.3795 221.952 90.8515 221.952ZM87.6195 220.776V221.312H94.1075V220.776H87.6195ZM99.2269 218.296H97.4349V217.416H96.7789V218.296H94.9949V218.824H99.2269V218.296ZM96.0189 220.552C96.0189 220.056 96.4589 219.736 97.1069 219.736C97.7549 219.736 98.2029 220.056 98.2029 220.552C98.2029 221.056 97.7549 221.376 97.1069 221.376C96.4589 221.376 96.0189 221.056 96.0189 220.552ZM98.8269 220.552C98.8269 219.752 98.1229 219.224 97.1069 219.224C96.0909 219.224 95.3949 219.752 95.3949 220.552C95.3949 221.36 96.0909 221.888 97.1069 221.888C98.1229 221.888 98.8269 221.36 98.8269 220.552ZM96.7309 222.376H96.0749V224.432H100.859V223.896H96.7309V222.376ZM100.539 219.784V217.416H99.8829V222.8H100.539V220.336H101.595V219.784H100.539ZM110.584 220.152C109.28 219.96 108 219.072 108 218.072V217.672H107.312V218.072C107.312 219.096 106.048 219.96 104.744 220.152L105.008 220.68C106.128 220.488 107.208 219.872 107.656 219C108.12 219.864 109.2 220.488 110.312 220.68L110.584 220.152ZM110.896 221.456H104.416V222H107.312V224.6H107.968V222H110.904L110.896 221.456ZM112.408 220.592C113.568 220.416 114.624 219.84 115.016 219.008C115.4 219.84 116.456 220.416 117.624 220.592L117.864 220.064C116.6 219.896 115.44 219.184 115.44 218.312V218.304H117.672V217.776H112.36V218.304H114.592V218.312C114.592 219.184 113.432 219.896 112.16 220.064L112.408 220.592ZM113.24 222.4H112.584V224.432H117.544V223.896H113.24V222.4ZM111.752 221.112V221.64H114.736V223.096H115.392V221.64H118.264V221.112H111.752ZM119.279 223.568C119.279 223.371 119.327 223.232 119.423 223.152C119.519 223.072 119.634 223.032 119.767 223.032C119.906 223.032 120.023 223.072 120.119 223.152C120.22 223.232 120.271 223.371 120.271 223.568C120.271 223.76 120.22 223.899 120.119 223.984C120.023 224.069 119.906 224.112 119.767 224.112C119.634 224.112 119.519 224.069 119.423 223.984C119.327 223.899 119.279 223.76 119.279 223.568ZM17.7581 234.968H14.4701V234.04H17.7581V234.968ZM17.7581 233.528H14.4701V232.616H13.8221V235.496H18.4141V232.616H17.7581V233.528ZM14.4621 231.528C13.7501 231.528 13.2381 231.064 13.2381 230.408C13.2381 229.752 13.7501 229.296 14.4621 229.296C15.1741 229.296 15.6861 229.752 15.6861 230.408C15.6861 231.064 15.1741 231.528 14.4621 231.528ZM17.7501 228.424V230.128H16.2861C16.1501 229.296 15.4301 228.752 14.4621 228.752C13.3901 228.752 12.6141 229.424 12.6141 230.408C12.6141 231.4 13.3901 232.072 14.4621 232.072C15.4461 232.072 16.1661 231.512 16.2941 230.664H17.7501V232.272H18.4141V228.424H17.7501ZM24.8855 231.088H21.3255V229.344H24.8855V231.088ZM25.5335 228.816H20.6855V231.608H25.5335V228.816ZM26.3655 232.584H19.8535V233.112H22.7655V235.584H23.4215V233.112H26.3655V232.584ZM35.475 231.152C34.171 230.96 32.891 230.072 32.891 229.072V228.672H32.203V229.072C32.203 230.096 30.939 230.96 29.635 231.152L29.899 231.68C31.019 231.488 32.099 230.872 32.547 230C33.011 230.864 34.091 231.488 35.203 231.68L35.475 231.152ZM35.787 232.456H29.307V233H32.203V235.6H32.859V233H35.795L35.787 232.456ZM41.1704 230.904H42.0824V232.96H42.7144V228.416H42.0824V230.368H41.1704V228.552H40.5464V232.696H41.1704V230.904ZM40.2584 229.272H38.7704V228.472H38.1224V229.272H36.6184V229.792H40.2664L40.2584 229.272ZM37.5064 231.392C37.5064 230.952 37.8824 230.656 38.4504 230.656C39.0104 230.656 39.3944 230.952 39.3944 231.392C39.3944 231.84 39.0104 232.136 38.4504 232.136C37.8824 232.136 37.5064 231.84 37.5064 231.392ZM39.9784 231.392C39.9784 230.656 39.3544 230.168 38.4504 230.168C37.5464 230.168 36.9144 230.656 36.9144 231.392C36.9144 232.144 37.5464 232.624 38.4504 232.624C39.3544 232.624 39.9784 232.144 39.9784 231.392ZM40.3544 235.08C39.2584 235.08 38.6024 234.808 38.6024 234.336C38.6024 233.856 39.2584 233.584 40.3544 233.584C41.4424 233.584 42.0984 233.856 42.0984 234.336C42.0984 234.808 41.4424 235.08 40.3544 235.08ZM40.3544 233.08C38.8584 233.08 37.9544 233.528 37.9544 234.336C37.9544 235.136 38.8584 235.584 40.3544 235.584C41.8504 235.584 42.7544 235.136 42.7544 234.336C42.7544 233.528 41.8504 233.08 40.3544 233.08ZM45.6418 233.408C45.0658 233.408 44.7058 232.68 44.7058 231.504C44.7058 230.352 45.0658 229.624 45.6418 229.624C46.2018 229.624 46.5698 230.352 46.5698 231.504C46.5698 232.68 46.2018 233.408 45.6418 233.408ZM48.0658 231.208H47.1618C47.0818 229.856 46.5058 229.016 45.6418 229.016C44.7058 229.016 44.1058 229.976 44.1058 231.504C44.1058 233.056 44.7058 234.016 45.6418 234.016C46.5218 234.016 47.1058 233.152 47.1618 231.744H48.0658V235.24H48.6898V228.576H48.0658V231.208ZM49.4898 228.416V235.592H50.1138V228.416H49.4898ZM59.1833 231.016H54.9593V230.296H58.9513V229.8H54.9593V229.12H59.1433V228.608H54.3033V231.528H59.1833V231.016ZM54.1753 233.952H58.4473V235.6H59.1033V233.432H54.1753V233.952ZM53.4473 232.208V232.736H59.9433V232.208H53.4473ZM66.0626 229.952V230.744H64.4066V229.952H66.0626ZM63.7586 231.352H61.8226V230.288H63.7586V231.352ZM64.4066 231.256H66.0626V232.168H66.7186V228.424H66.0626V229.44H64.4066V228.76H63.7586V229.776H61.8226V228.752H61.1746V231.88H64.4066V231.256ZM62.7586 234.976V234.216H66.7186V232.512H62.0946V233.032H66.0706V233.72H62.1106V235.496H66.9906V234.976H62.7586ZM72.43 229.296H70.638V228.416H69.982V229.296H68.198V229.824H72.43V229.296ZM69.222 231.552C69.222 231.056 69.662 230.736 70.31 230.736C70.958 230.736 71.406 231.056 71.406 231.552C71.406 232.056 70.958 232.376 70.31 232.376C69.662 232.376 69.222 232.056 69.222 231.552ZM72.03 231.552C72.03 230.752 71.326 230.224 70.31 230.224C69.294 230.224 68.598 230.752 68.598 231.552C68.598 232.36 69.294 232.888 70.31 232.888C71.326 232.888 72.03 232.36 72.03 231.552ZM69.934 233.376H69.278V235.432H74.062V234.896H69.934V233.376ZM73.742 230.784V228.416H73.086V233.8H73.742V231.336H74.798V230.784H73.742ZM81.1875 234.144V232.304H83.3715V231.776H79.0915V229.528H83.2995V228.992H78.4355V232.304H80.5235V234.144H77.6035V234.688H84.1235V234.144H81.1875ZM88.2189 229.064C89.3469 229.064 90.0589 229.376 90.0589 229.904C90.0589 230.424 89.3469 230.736 88.2189 230.736C87.0749 230.736 86.3629 230.424 86.3629 229.904C86.3629 229.376 87.0749 229.064 88.2189 229.064ZM88.2189 231.24C89.7629 231.24 90.7309 230.752 90.7309 229.904C90.7309 229.048 89.7629 228.552 88.2189 228.552C86.6589 228.552 85.6909 229.048 85.6909 229.904C85.6909 230.752 86.6589 231.24 88.2189 231.24ZM90.0269 234.968H86.4109V233.656H90.0269V234.968ZM91.4589 232.32V231.792H84.9709V232.32H87.8909V233.136H85.7709V235.496H90.6669V233.136H88.5469V232.32H91.4589ZM97.5463 228.416V235.608H98.2023V228.416H97.5463ZM94.4183 228.968C93.3543 228.968 92.5943 229.944 92.5943 231.472C92.5943 233 93.3543 233.976 94.4183 233.976C95.4823 233.976 96.2423 233 96.2423 231.472C96.2423 229.944 95.4823 228.968 94.4183 228.968ZM94.4183 229.56C95.1143 229.56 95.6103 230.312 95.6103 231.472C95.6103 232.64 95.1143 233.392 94.4183 233.392C93.7143 233.392 93.2183 232.64 93.2183 231.472C93.2183 230.312 93.7143 229.56 94.4183 229.56ZM107.664 228.416H107.008V232.144H107.664V228.416ZM103.432 229.416H104.6V231.28C104.208 231.304 103.816 231.32 103.432 231.328V229.416ZM106.288 231.144C105.944 231.176 105.592 231.216 105.232 231.24V229.416H105.936V228.896H102.088V229.416H102.792V231.344C102.48 231.352 102.176 231.352 101.896 231.352L101.96 231.896C103.224 231.888 104.896 231.84 106.32 231.624L106.288 231.144ZM103.648 234.992V234.208H107.664V232.488H102.976V233H107.016V233.72H103V235.512H107.936V234.992H103.648ZM111.375 232.44C111.671 232.512 112.015 232.552 112.367 232.552C112.727 232.552 113.071 232.512 113.375 232.44V234.128H111.375V232.44ZM112.367 229.384C113.519 229.384 114.351 229.912 114.351 230.712C114.351 231.512 113.519 232.04 112.367 232.04C111.215 232.04 110.391 231.512 110.391 230.712C110.391 229.912 111.215 229.384 112.367 229.384ZM114.031 234.128V232.184C114.623 231.872 114.975 231.36 114.975 230.712C114.975 229.592 113.895 228.872 112.367 228.872C110.847 228.872 109.759 229.592 109.759 230.712C109.759 231.36 110.119 231.88 110.719 232.192V234.128H109.119V234.672H115.639V234.128H114.031ZM119.183 234.984H117.919V234.016H119.183V234.984ZM119.183 233.528H117.919V232.624H117.303V235.496H119.791V232.624H119.183V233.528ZM118.447 231.496C117.735 231.496 117.223 231.032 117.223 230.384C117.223 229.736 117.735 229.28 118.447 229.28C119.159 229.28 119.671 229.736 119.671 230.384C119.671 231.032 119.159 231.496 118.447 231.496ZM121.735 230.64V232.216H122.399V228.424H121.735V230.104H120.271C120.135 229.28 119.415 228.736 118.447 228.736C117.375 228.736 116.599 229.4 116.599 230.384C116.599 231.368 117.375 232.04 118.447 232.04C119.431 232.04 120.151 231.48 120.279 230.64H121.735ZM121.823 232.576H121.183V233.184C121.183 233.92 120.735 234.696 119.879 235.064L120.215 235.56C120.839 235.288 121.271 234.792 121.503 234.208C121.719 234.8 122.151 235.288 122.799 235.56L123.127 235.064C122.271 234.728 121.823 233.944 121.823 233.184V232.576ZM127.086 228.576C125.534 228.576 124.566 229.08 124.566 229.936C124.566 230.784 125.534 231.288 127.086 231.288C128.638 231.288 129.606 230.784 129.606 229.936C129.606 229.08 128.638 228.576 127.086 228.576ZM127.086 229.096C128.222 229.096 128.934 229.408 128.934 229.936C128.934 230.464 128.222 230.776 127.086 230.776C125.95 230.776 125.238 230.464 125.238 229.936C125.238 229.408 125.95 229.096 127.086 229.096ZM124.646 233.136V235.496H129.542V233.136H124.646ZM128.902 233.656V234.968H125.286V233.656H128.902ZM123.846 231.904V232.432H130.334V231.904H123.846ZM131.357 234.568C131.357 234.371 131.405 234.232 131.501 234.152C131.597 234.072 131.712 234.032 131.845 234.032C131.984 234.032 132.101 234.072 132.197 234.152C132.299 234.232 132.349 234.371 132.349 234.568C132.349 234.76 132.299 234.899 132.197 234.984C132.101 235.069 131.984 235.112 131.845 235.112C131.712 235.112 131.597 235.069 131.501 234.984C131.405 234.899 131.357 234.76 131.357 234.568Z" fill="#818181"/>
<path d="M193.054 76.768H194.558V80.144H193.054V76.768ZM192.438 80.664H195.166V76.248H192.438V80.664ZM197.654 75.416V78.256H196.686V75.576H196.07V82.232H196.686V78.792H197.654V82.584H198.278V75.416H197.654ZM202.773 76.232C203.869 76.232 204.613 76.64 204.613 77.272C204.613 77.912 203.869 78.32 202.773 78.32C201.685 78.32 200.941 77.912 200.941 77.272C200.941 76.64 201.685 76.232 202.773 76.232ZM202.773 78.848C204.269 78.848 205.285 78.24 205.285 77.272C205.285 76.312 204.269 75.704 202.773 75.704C201.285 75.704 200.269 76.312 200.269 77.272C200.269 78.24 201.285 78.848 202.773 78.848ZM206.037 79.528H199.541V80.072H202.445V82.6H203.101V80.072H206.037V79.528ZM214.731 77.416H210.515V75.568H209.859V77.944H214.731V77.416ZM212.219 82.056C211.091 82.056 210.427 81.76 210.427 81.264C210.427 80.752 211.091 80.464 212.219 80.464C213.347 80.464 214.011 80.752 214.011 81.264C214.011 81.76 213.339 82.056 212.219 82.056ZM212.219 79.952C210.691 79.952 209.763 80.424 209.763 81.264C209.763 82.096 210.691 82.568 212.219 82.568C213.747 82.568 214.675 82.096 214.675 81.264C214.675 80.424 213.747 79.952 212.219 79.952ZM208.987 78.776V79.312H215.475V78.776H208.987ZM222.45 77.728C221.186 77.552 219.922 76.744 219.922 75.832V75.512H219.25V75.832C219.25 76.76 217.994 77.552 216.714 77.728L216.962 78.248C218.074 78.064 219.138 77.496 219.586 76.68C220.042 77.488 221.098 78.072 222.21 78.248L222.45 77.728ZM222.826 79.344V78.816H216.338V79.344H219.25V80.256H217.058V80.784H221.37V82.6H222.026V80.256H219.906V79.344H222.826ZM225.801 80.448C225.153 80.448 224.681 79.984 224.681 79.344C224.681 78.696 225.153 78.232 225.801 78.232C226.457 78.232 226.929 78.696 226.929 79.344C226.929 79.984 226.457 80.448 225.801 80.448ZM225.801 77.688C224.793 77.688 224.065 78.376 224.065 79.344C224.065 80.32 224.793 80.992 225.801 80.992C226.825 80.992 227.553 80.32 227.553 79.344C227.553 78.376 226.825 77.688 225.801 77.688ZM226.121 75.504H225.465V76.568H223.657V77.096H227.889V76.568H226.121V75.504ZM230.401 78.368H229.225V75.424H228.569V82.592H229.225V78.92H230.401V78.368ZM236.945 75.424H236.289V80.672H236.945V75.424ZM235.441 79.128C234.385 78.776 233.641 77.904 233.641 76.936V76.544H235.265V76.016H231.329V76.544H232.969V76.936C232.969 77.96 232.241 78.896 231.153 79.272L231.497 79.784C232.345 79.48 233.009 78.832 233.313 78.016C233.641 78.768 234.297 79.36 235.121 79.648L235.441 79.128ZM232.985 81.896V80.176H232.329V82.432H237.161V81.896H232.985ZM241.27 77.48C241.27 76.824 241.79 76.36 242.486 76.36C243.174 76.36 243.694 76.824 243.694 77.48C243.694 78.136 243.174 78.6 242.486 78.6C241.79 78.6 241.27 78.136 241.27 77.48ZM244.334 77.48C244.334 76.504 243.55 75.824 242.486 75.824C241.414 75.824 240.63 76.504 240.63 77.48C240.63 78.456 241.414 79.136 242.486 79.136C243.55 79.136 244.334 78.456 244.334 77.48ZM241.886 79.768H241.246V82.408H241.59C242.078 82.408 242.75 82.368 243.43 82.144L243.326 81.624C242.83 81.784 242.302 81.848 241.886 81.864V79.768ZM244.974 82.12C244.534 82.12 244.23 81.896 244.23 81.568C244.23 81.24 244.534 81.024 244.974 81.024C245.406 81.024 245.718 81.24 245.718 81.568C245.718 81.896 245.406 82.12 244.974 82.12ZM244.974 80.56C244.198 80.56 243.646 80.952 243.646 81.568C243.646 82.192 244.198 82.584 244.974 82.584C245.75 82.584 246.302 82.192 246.302 81.568C246.302 80.952 245.75 80.56 244.974 80.56ZM245.294 79.168H244.654V79.816H243.166V80.304H246.774V79.816H245.294V79.168ZM246.062 77.024V75.416H245.406V78.992H246.062V77.568H247.126V77.024H246.062ZM251.094 75.864C249.606 75.864 248.486 76.656 248.486 77.848C248.486 79.048 249.606 79.832 251.094 79.832C252.582 79.832 253.702 79.048 253.702 77.848C253.702 76.656 252.582 75.864 251.094 75.864ZM251.094 76.4C252.23 76.4 253.078 76.984 253.078 77.848C253.078 78.72 252.23 79.296 251.094 79.296C249.966 79.296 249.11 78.72 249.11 77.848C249.11 76.984 249.966 76.4 251.094 76.4ZM247.846 81.096V81.64H254.366V81.096H247.846ZM256.149 76.112H255.501V80.776H256.069C257.165 80.776 258.261 80.696 259.485 80.448L259.405 79.904C258.245 80.136 257.181 80.224 256.149 80.224V76.112ZM261.885 78.28H260.733V75.416H260.077V82.592H260.733V78.824H261.885V78.28ZM269.899 77.272V78.232H268.019V78.768H269.899V79.712H270.563V75.424H269.899V76.736H268.275C268.323 76.488 268.355 76.224 268.355 75.96H265.115V76.488H267.643C267.523 77.728 266.459 78.68 264.747 79.192L265.011 79.712C266.555 79.264 267.643 78.424 268.107 77.272H269.899ZM268.219 82.048C267.163 82.048 266.491 81.72 266.491 81.176C266.491 80.64 267.163 80.312 268.219 80.312C269.275 80.312 269.947 80.64 269.947 81.176C269.947 81.72 269.275 82.048 268.219 82.048ZM268.219 79.792C266.771 79.792 265.843 80.312 265.843 81.176C265.843 82.04 266.771 82.56 268.219 82.56C269.667 82.56 270.595 82.04 270.595 81.176C270.595 80.312 269.667 79.792 268.219 79.792ZM276.178 76.168H274.426V75.344H273.77V76.168H272.018V76.696H276.178V76.168ZM273.058 78.344C273.058 77.88 273.49 77.56 274.098 77.56C274.706 77.56 275.138 77.88 275.138 78.344C275.138 78.808 274.706 79.128 274.098 79.128C273.49 79.128 273.058 78.808 273.058 78.344ZM275.754 78.344C275.754 77.576 275.066 77.064 274.098 77.064C273.122 77.064 272.434 77.576 272.434 78.344C272.434 79.112 273.122 79.616 274.098 79.616C275.066 79.616 275.754 79.112 275.754 78.344ZM273.898 80.664H277.282V81.968H273.898V80.664ZM273.258 82.496H277.922V80.144H273.258V82.496ZM277.258 75.424V77.6H276.066V78.136H277.258V79.76H277.922V75.424H277.258ZM284.585 75.416V82.608H285.241V75.416H284.585ZM281.457 75.968C280.393 75.968 279.633 76.944 279.633 78.472C279.633 80 280.393 80.976 281.457 80.976C282.521 80.976 283.281 80 283.281 78.472C283.281 76.944 282.521 75.968 281.457 75.968ZM281.457 76.56C282.153 76.56 282.649 77.312 282.649 78.472C282.649 79.64 282.153 80.392 281.457 80.392C280.753 80.392 280.257 79.64 280.257 78.472C280.257 77.312 280.753 76.56 281.457 76.56ZM294.695 75.424H294.039V79.52H294.695V75.424ZM290.839 76.384C291.551 76.384 292.079 76.856 292.079 77.512C292.079 78.176 291.551 78.64 290.839 78.64C290.127 78.64 289.615 78.176 289.615 77.512C289.615 76.856 290.127 76.384 290.839 76.384ZM290.839 79.184C291.927 79.184 292.719 78.504 292.719 77.512C292.719 76.52 291.927 75.84 290.839 75.84C289.759 75.84 288.975 76.52 288.975 77.512C288.975 78.504 289.759 79.184 290.839 79.184ZM293.895 79.832H293.255V80.216C293.255 80.776 292.911 81.496 292.223 81.92C291.559 81.528 291.231 80.848 291.231 80.216V79.832H290.599V80.216C290.599 80.904 290.063 81.68 289.159 82L289.487 82.496C290.159 82.24 290.647 81.744 290.903 81.168C291.119 81.768 291.551 82.288 292.239 82.56C292.903 82.272 293.343 81.728 293.567 81.144C293.807 81.744 294.303 82.24 295.007 82.496L295.335 82C294.423 81.696 293.895 80.96 293.895 80.216V79.832ZM301.23 76.848C301.23 77.712 301.23 78.72 300.958 80.096L301.614 80.168C301.886 78.72 301.886 77.736 301.886 76.848V76.136H296.854V76.672H301.23V76.848ZM299.35 81.048V78.48H298.694V81.048H296.174V81.584H302.662V81.048H299.35ZM304.638 81.16C304.59 81.3467 304.528 81.5493 304.454 81.768C304.379 81.9867 304.296 82.2027 304.206 82.416C304.12 82.6347 304.035 82.84 303.95 83.032H303.43C303.483 82.8293 303.534 82.6107 303.582 82.376C303.635 82.1467 303.683 81.92 303.726 81.696C303.768 81.4667 303.803 81.2587 303.83 81.072H304.582L304.638 81.16ZM192.606 87.192V87.72H195.302C195.166 89.424 194.206 90.8 192.278 91.72L192.63 92.256C195.014 91.088 195.966 89.264 195.966 87.192H192.606ZM197.414 86.416V93.592H198.07V86.416H197.414ZM201.029 91.448H200.373V93.432H205.309V92.896H201.029V91.448ZM201.045 88.12H204.533V89.04H201.045V88.12ZM203.117 90.336V89.568H205.181V86.696H204.533V87.608H201.045V86.696H200.397V89.568H202.461V90.336H199.533V90.872H206.029V90.336H203.117ZM211.133 89.92C210.093 89.552 209.389 88.648 209.389 87.728V87.44H210.965V86.904H207.133V87.44H208.733V87.728C208.733 88.744 207.989 89.704 206.925 90.08L207.269 90.6C208.109 90.288 208.765 89.632 209.069 88.808C209.389 89.552 210.005 90.144 210.805 90.432L211.133 89.92ZM208.013 91.632H212.149V93.6H212.813V91.104H208.013V91.632ZM212.149 86.416V88.288H210.749V88.824H212.149V90.712H212.813V86.416H212.149ZM220.148 86.424H219.492V91.664H220.148V86.424ZM215.068 88.68C215.068 87.984 215.596 87.488 216.292 87.488C217.004 87.488 217.532 87.984 217.532 88.68C217.532 89.392 217.004 89.888 216.292 89.888C215.596 89.888 215.068 89.392 215.068 88.68ZM218.172 88.68C218.172 87.648 217.364 86.92 216.292 86.92C215.228 86.92 214.428 87.648 214.428 88.68C214.428 89.72 215.228 90.456 216.292 90.456C217.364 90.456 218.172 89.72 218.172 88.68ZM216.188 92.896V91.128H215.532V93.432H220.364V92.896H216.188ZM228.953 92.968H225.665V92.04H228.953V92.968ZM228.953 91.528H225.665V90.616H225.017V93.496H229.609V90.616H228.953V91.528ZM225.657 89.528C224.945 89.528 224.433 89.064 224.433 88.408C224.433 87.752 224.945 87.296 225.657 87.296C226.369 87.296 226.881 87.752 226.881 88.408C226.881 89.064 226.369 89.528 225.657 89.528ZM228.945 86.424V88.128H227.481C227.345 87.296 226.625 86.752 225.657 86.752C224.585 86.752 223.809 87.424 223.809 88.408C223.809 89.4 224.585 90.072 225.657 90.072C226.641 90.072 227.361 89.512 227.489 88.664H228.945V90.272H229.609V86.424H228.945ZM236.081 89.088H232.521V87.344H236.081V89.088ZM236.729 86.816H231.881V89.608H236.729V86.816ZM237.561 90.584H231.049V91.112H233.961V93.584H234.617V91.112H237.561V90.584ZM246.67 89.152C245.366 88.96 244.086 88.072 244.086 87.072V86.672H243.398V87.072C243.398 88.096 242.134 88.96 240.83 89.152L241.094 89.68C242.214 89.488 243.294 88.872 243.742 88C244.206 88.864 245.286 89.488 246.398 89.68L246.67 89.152ZM246.982 90.456H240.502V91H243.398V93.6H244.054V91H246.99L246.982 90.456ZM252.366 88.904H253.278V90.96H253.91V86.416H253.278V88.368H252.366V86.552H251.742V90.696H252.366V88.904ZM251.454 87.272H249.966V86.472H249.318V87.272H247.814V87.792H251.462L251.454 87.272ZM248.702 89.392C248.702 88.952 249.078 88.656 249.646 88.656C250.206 88.656 250.59 88.952 250.59 89.392C250.59 89.84 250.206 90.136 249.646 90.136C249.078 90.136 248.702 89.84 248.702 89.392ZM251.174 89.392C251.174 88.656 250.55 88.168 249.646 88.168C248.742 88.168 248.11 88.656 248.11 89.392C248.11 90.144 248.742 90.624 249.646 90.624C250.55 90.624 251.174 90.144 251.174 89.392ZM251.55 93.08C250.454 93.08 249.798 92.808 249.798 92.336C249.798 91.856 250.454 91.584 251.55 91.584C252.638 91.584 253.294 91.856 253.294 92.336C253.294 92.808 252.638 93.08 251.55 93.08ZM251.55 91.08C250.054 91.08 249.15 91.528 249.15 92.336C249.15 93.136 250.054 93.584 251.55 93.584C253.046 93.584 253.95 93.136 253.95 92.336C253.95 91.528 253.046 91.08 251.55 91.08ZM260.429 86.416V93.608H261.085V86.416H260.429ZM257.301 86.968C256.237 86.968 255.477 87.944 255.477 89.472C255.477 91 256.237 91.976 257.301 91.976C258.365 91.976 259.125 91 259.125 89.472C259.125 87.944 258.365 86.968 257.301 86.968ZM257.301 87.56C257.997 87.56 258.493 88.312 258.493 89.472C258.493 90.64 257.997 91.392 257.301 91.392C256.597 91.392 256.101 90.64 256.101 89.472C256.101 88.312 256.597 87.56 257.301 87.56ZM265.035 87.184V87.728H267.667C267.515 89.424 266.531 90.8 264.699 91.72L265.059 92.232C267.379 91.072 268.315 89.224 268.315 87.184H265.035ZM271.323 89.328H270.171V86.416H269.515V93.592H270.171V89.872H271.323V89.328ZM277.762 88.416H273.546V86.568H272.89V88.944H277.762V88.416ZM275.25 93.056C274.122 93.056 273.458 92.76 273.458 92.264C273.458 91.752 274.122 91.464 275.25 91.464C276.378 91.464 277.042 91.752 277.042 92.264C277.042 92.76 276.37 93.056 275.25 93.056ZM275.25 90.952C273.722 90.952 272.794 91.424 272.794 92.264C272.794 93.096 273.722 93.568 275.25 93.568C276.778 93.568 277.706 93.096 277.706 92.264C277.706 91.424 276.778 90.952 275.25 90.952ZM272.018 89.776V90.312H278.506V89.776H272.018ZM283.625 87.296H281.833V86.416H281.177V87.296H279.393V87.824H283.625V87.296ZM280.417 89.552C280.417 89.056 280.857 88.736 281.505 88.736C282.153 88.736 282.601 89.056 282.601 89.552C282.601 90.056 282.153 90.376 281.505 90.376C280.857 90.376 280.417 90.056 280.417 89.552ZM283.225 89.552C283.225 88.752 282.521 88.224 281.505 88.224C280.489 88.224 279.793 88.752 279.793 89.552C279.793 90.36 280.489 90.888 281.505 90.888C282.521 90.888 283.225 90.36 283.225 89.552ZM281.129 91.376H280.473V93.432H285.257V92.896H281.129V91.376ZM284.937 88.784V86.416H284.281V91.8H284.937V89.336H285.993V88.784H284.937ZM294.983 89.152C293.679 88.96 292.399 88.072 292.399 87.072V86.672H291.711V87.072C291.711 88.096 290.447 88.96 289.143 89.152L289.407 89.68C290.527 89.488 291.607 88.872 292.055 88C292.519 88.864 293.599 89.488 294.711 89.68L294.983 89.152ZM295.295 90.456H288.815V91H291.711V93.6H292.367V91H295.303L295.295 90.456ZM296.806 89.592C297.966 89.416 299.022 88.84 299.414 88.008C299.798 88.84 300.854 89.416 302.022 89.592L302.262 89.064C300.998 88.896 299.838 88.184 299.838 87.312V87.304H302.07V86.776H296.758V87.304H298.99V87.312C298.99 88.184 297.83 88.896 296.558 89.064L296.806 89.592ZM297.638 91.4H296.982V93.432H301.942V92.896H297.638V91.4ZM296.15 90.112V90.64H299.134V92.096H299.79V90.64H302.662V90.112H296.15ZM303.678 92.568C303.678 92.3707 303.726 92.232 303.822 92.152C303.918 92.072 304.032 92.032 304.166 92.032C304.304 92.032 304.422 92.072 304.518 92.152C304.619 92.232 304.67 92.3707 304.67 92.568C304.67 92.76 304.619 92.8987 304.518 92.984C304.422 93.0693 304.304 93.112 304.166 93.112C304.032 93.112 303.918 93.0693 303.822 92.984C303.726 92.8987 303.678 92.76 303.678 92.568ZM172.385 101.208C173.497 101.04 174.529 100.488 174.985 99.712C175.441 100.488 176.465 101.04 177.577 101.208L177.809 100.68C176.529 100.504 175.312 99.712 175.312 98.832H177.601V98.304H175.312V97.416H174.657V98.304H172.368V98.832H174.649C174.649 99.72 173.441 100.504 172.145 100.68L172.385 101.208ZM178.233 101.752H171.745V102.288H174.657V104.6H175.312V102.288H178.233V101.752ZM179.48 98.184V98.728H182.112C181.96 100.424 180.976 101.8 179.144 102.72L179.504 103.232C181.824 102.072 182.76 100.224 182.76 98.184H179.48ZM185.768 100.328H184.616V97.416H183.96V104.592H184.616V100.872H185.768V100.328ZM190.687 100.92C189.647 100.552 188.943 99.648 188.943 98.728V98.44H190.519V97.904H186.687V98.44H188.287V98.728C188.287 99.744 187.543 100.704 186.479 101.08L186.823 101.6C187.663 101.288 188.319 100.632 188.623 99.808C188.943 100.552 189.559 101.144 190.359 101.432L190.687 100.92ZM187.567 102.632H191.703V104.6H192.367V102.104H187.567V102.632ZM191.703 97.416V99.288H190.303V99.824H191.703V101.712H192.367V97.416H191.703ZM199.703 97.424H199.047V102.664H199.703V97.424ZM194.623 99.68C194.623 98.984 195.151 98.488 195.847 98.488C196.559 98.488 197.087 98.984 197.087 99.68C197.087 100.392 196.559 100.888 195.847 100.888C195.151 100.888 194.623 100.392 194.623 99.68ZM197.727 99.68C197.727 98.648 196.919 97.92 195.847 97.92C194.783 97.92 193.983 98.648 193.983 99.68C193.983 100.72 194.783 101.456 195.847 101.456C196.919 101.456 197.727 100.72 197.727 99.68ZM195.743 103.896V102.128H195.087V104.432H199.919V103.896H195.743ZM207.508 98.176H205.716V97.376H205.06V98.176H203.276V98.704H207.508V98.176ZM204.3 100.368C204.3 99.896 204.732 99.584 205.388 99.584C206.044 99.584 206.484 99.896 206.484 100.368C206.484 100.848 206.044 101.16 205.388 101.16C204.732 101.16 204.3 100.848 204.3 100.368ZM207.108 100.368C207.108 99.584 206.412 99.072 205.388 99.072C204.372 99.072 203.676 99.584 203.676 100.368C203.676 101.16 204.372 101.664 205.388 101.664C206.412 101.664 207.108 101.16 207.108 100.368ZM204.164 102.832H208.164V104.6H208.82V102.296H204.164V102.832ZM209.884 99.4H208.82V97.424H208.164V101.904H208.82V99.944H209.884V99.4ZM216.732 99.656C215.46 99.496 214.196 98.704 214.196 97.816V97.496H213.524V97.816C213.524 98.728 212.268 99.496 210.98 99.656L211.22 100.184C212.34 100.008 213.412 99.448 213.86 98.648C214.316 99.448 215.38 100.008 216.492 100.184L216.732 99.656ZM215.604 103.968H212.076V103.056H215.604V103.968ZM215.604 102.552H212.076V101.712H211.428V104.496H216.252V101.712H215.604V102.552ZM210.604 100.688V101.216H217.1V100.688H210.604ZM225.929 97.416H225.273V101.536H225.929V97.416ZM223.137 100.288H221.065V98.4H223.137V100.288ZM223.777 97.88H220.425V100.816H223.777V97.88ZM226.097 102.528V102.024H223.993V101.328H223.329V102.024H221.225V102.528H223.321C223.313 103.24 222.169 103.92 220.945 104.064L221.161 104.568C222.241 104.416 223.233 103.936 223.665 103.256C224.089 103.92 225.049 104.416 226.129 104.568L226.353 104.064C225.121 103.912 224.009 103.216 224.001 102.528H226.097ZM230.455 100.608H232.983V100.08H230.455V98.6H233.143V98.064H229.799V102.864H230.359C231.711 102.864 232.639 102.816 233.743 102.624L233.679 102.096C232.623 102.272 231.727 102.328 230.455 102.328V100.608ZM236.191 100.296H235.007V97.416H234.351V104.584H235.007V100.848H236.191V100.296ZM242.734 97.424H242.078V102.664H242.734V97.424ZM237.654 99.68C237.654 98.984 238.182 98.488 238.878 98.488C239.59 98.488 240.118 98.984 240.118 99.68C240.118 100.392 239.59 100.888 238.878 100.888C238.182 100.888 237.654 100.392 237.654 99.68ZM240.758 99.68C240.758 98.648 239.95 97.92 238.878 97.92C237.814 97.92 237.014 98.648 237.014 99.68C237.014 100.72 237.814 101.456 238.878 101.456C239.95 101.456 240.758 100.72 240.758 99.68ZM238.774 103.896V102.128H238.118V104.432H242.95V103.896H238.774ZM246.533 97.944C245.421 97.944 244.613 98.624 244.613 99.632C244.613 100.632 245.421 101.32 246.533 101.32C247.653 101.32 248.453 100.632 248.453 99.632C248.453 98.624 247.653 97.944 246.533 97.944ZM246.533 98.504C247.277 98.504 247.813 98.96 247.813 99.632C247.813 100.296 247.277 100.76 246.533 100.76C245.797 100.76 245.253 100.296 245.253 99.632C245.253 98.96 245.797 98.504 246.533 98.504ZM249.397 97.416V104.608H250.053V97.416H249.397ZM244.333 103.032C245.629 103.032 247.365 103.016 248.981 102.72L248.925 102.232C247.357 102.472 245.557 102.48 244.253 102.48L244.333 103.032ZM257.219 103.144V101.304H259.403V100.776H255.123V98.528H259.331V97.992H254.467V101.304H256.555V103.144H253.635V103.688H260.155V103.144H257.219ZM264.25 98.064C265.378 98.064 266.09 98.376 266.09 98.904C266.09 99.424 265.378 99.736 264.25 99.736C263.106 99.736 262.394 99.424 262.394 98.904C262.394 98.376 263.106 98.064 264.25 98.064ZM264.25 100.24C265.794 100.24 266.762 99.752 266.762 98.904C266.762 98.048 265.794 97.552 264.25 97.552C262.69 97.552 261.722 98.048 261.722 98.904C261.722 99.752 262.69 100.24 264.25 100.24ZM266.058 103.968H262.442V102.656H266.058V103.968ZM267.49 101.32V100.792H261.002V101.32H263.922V102.136H261.802V104.496H266.698V102.136H264.578V101.32H267.49ZM273.578 97.416V104.608H274.234V97.416H273.578ZM270.45 97.968C269.386 97.968 268.626 98.944 268.626 100.472C268.626 102 269.386 102.976 270.45 102.976C271.514 102.976 272.274 102 272.274 100.472C272.274 98.944 271.514 97.968 270.45 97.968ZM270.45 98.56C271.146 98.56 271.642 99.312 271.642 100.472C271.642 101.64 271.146 102.392 270.45 102.392C269.746 102.392 269.25 101.64 269.25 100.472C269.25 99.312 269.746 98.56 270.45 98.56ZM283.695 97.416H283.039V101.144H283.695V97.416ZM279.463 98.416H280.631V100.28C280.239 100.304 279.847 100.32 279.463 100.328V98.416ZM282.319 100.144C281.975 100.176 281.623 100.216 281.263 100.24V98.416H281.967V97.896H278.119V98.416H278.823V100.344C278.511 100.352 278.207 100.352 277.927 100.352L277.991 100.896C279.255 100.888 280.927 100.84 282.351 100.624L282.319 100.144ZM279.679 103.992V103.208H283.695V101.488H279.007V102H283.047V102.72H279.031V104.512H283.967V103.992H279.679ZM287.406 101.44C287.702 101.512 288.046 101.552 288.398 101.552C288.758 101.552 289.102 101.512 289.406 101.44V103.128H287.406V101.44ZM288.398 98.384C289.55 98.384 290.382 98.912 290.382 99.712C290.382 100.512 289.55 101.04 288.398 101.04C287.246 101.04 286.422 100.512 286.422 99.712C286.422 98.912 287.246 98.384 288.398 98.384ZM290.062 103.128V101.184C290.654 100.872 291.006 100.36 291.006 99.712C291.006 98.592 289.926 97.872 288.398 97.872C286.878 97.872 285.79 98.592 285.79 99.712C285.79 100.36 286.15 100.88 286.75 101.192V103.128H285.15V103.672H291.67V103.128H290.062ZM296.774 98.072H294.982V97.344H294.326V98.072H292.542V98.576H296.774V98.072ZM293.566 100.072C293.566 99.64 293.99 99.384 294.654 99.384C295.318 99.384 295.75 99.64 295.75 100.072C295.75 100.496 295.318 100.76 294.654 100.76C293.99 100.76 293.566 100.496 293.566 100.072ZM296.374 100.072C296.374 99.344 295.694 98.896 294.654 98.896C293.622 98.896 292.942 99.344 292.942 100.072C292.942 100.8 293.622 101.248 294.654 101.248C295.694 101.248 296.374 100.8 296.374 100.072ZM294.19 103.32H298.086V101.728H293.526V102.216H297.438V102.84H293.55V104.512H298.35V104.008H294.19V103.32ZM298.086 99.12V97.392H297.43V101.36H298.086V99.664H299.15V99.12H298.086ZM308.131 100.152C306.827 99.96 305.547 99.072 305.547 98.072V97.672H304.859V98.072C304.859 99.096 303.595 99.96 302.291 100.152L302.555 100.68C303.675 100.488 304.755 99.872 305.203 99C305.667 99.864 306.747 100.488 307.859 100.68L308.131 100.152ZM308.443 101.456H301.963V102H304.859V104.6H305.515V102H308.451L308.443 101.456ZM317.281 97.424H316.625V101.52H317.281V97.424ZM313.425 98.384C314.137 98.384 314.665 98.856 314.665 99.512C314.665 100.176 314.137 100.64 313.425 100.64C312.713 100.64 312.201 100.176 312.201 99.512C312.201 98.856 312.713 98.384 313.425 98.384ZM313.425 101.184C314.513 101.184 315.305 100.504 315.305 99.512C315.305 98.52 314.513 97.84 313.425 97.84C312.345 97.84 311.561 98.52 311.561 99.512C311.561 100.504 312.345 101.184 313.425 101.184ZM316.481 101.832H315.841V102.216C315.841 102.776 315.497 103.496 314.809 103.92C314.145 103.528 313.817 102.848 313.817 102.216V101.832H313.185V102.216C313.185 102.904 312.649 103.68 311.745 104L312.073 104.496C312.745 104.24 313.233 103.744 313.489 103.168C313.705 103.768 314.137 104.288 314.825 104.56C315.489 104.272 315.929 103.728 316.153 103.144C316.393 103.744 316.889 104.24 317.593 104.496L317.921 104C317.009 103.696 316.481 102.96 316.481 102.216V101.832ZM321.992 97.576C320.44 97.576 319.472 98.08 319.472 98.936C319.472 99.784 320.44 100.288 321.992 100.288C323.544 100.288 324.512 99.784 324.512 98.936C324.512 98.08 323.544 97.576 321.992 97.576ZM321.992 98.096C323.128 98.096 323.84 98.408 323.84 98.936C323.84 99.464 323.128 99.776 321.992 99.776C320.856 99.776 320.144 99.464 320.144 98.936C320.144 98.408 320.856 98.096 321.992 98.096ZM319.552 102.136V104.496H324.448V102.136H319.552ZM323.808 102.656V103.968H320.192V102.656H323.808ZM318.752 100.904V101.432H325.24V100.904H318.752Z" fill="#818181"/>
<path d="M13.6608 78.48C13.8448 77.536 13.8448 76.824 13.8448 76.352V75.976H10.2768V76.512H13.2048C13.2048 76.968 13.1808 77.584 13.0128 78.408L13.6608 78.48ZM14.3408 78.912C13.6128 79.008 12.7968 79.072 12.0128 79.104V77.576H11.3648V79.128C10.8208 79.136 10.3008 79.144 9.84475 79.144L9.90875 79.68C11.1808 79.68 12.9008 79.64 14.3888 79.392L14.3408 78.912ZM11.5968 80.328H10.9408V82.432H15.7088V81.896H11.5968V80.328ZM15.4768 77.752V75.416H14.8208V80.824H15.4768V78.296H16.5008V77.752H15.4768ZM22.5001 80.696H23.1641V75.424H22.5001V76.632H21.1081V77.16H22.5001V78.232H21.1081V78.768H22.5001V80.696ZM21.0521 79.016C20.1961 79.168 19.4761 79.2 18.1961 79.2V78.024H20.6281V75.928H17.5321V76.456H19.9721V77.512H17.5481V79.736H18.0681C19.4521 79.736 20.2041 79.712 21.1161 79.552L21.0521 79.016ZM19.1721 81.872V80.312H18.5161V82.4H23.3801V81.872H19.1721ZM29.2496 76.696H30.9376V76.152H26.9296V76.696H28.5936V77.608C28.5936 78.848 27.7216 80.2 26.6896 80.688L27.0736 81.216C27.8896 80.8 28.5936 79.896 28.9216 78.848C29.2656 79.832 29.9696 80.656 30.8016 81.04L31.1696 80.512C30.1136 80.064 29.2496 78.824 29.2496 77.608V76.696ZM31.9056 75.424V82.592H32.5616V75.424H31.9056ZM38.377 78.792C37.313 78.424 36.577 77.488 36.577 76.456V75.752H35.921V76.456C35.921 77.528 35.193 78.528 34.113 78.92L34.449 79.44C35.289 79.12 35.945 78.456 36.257 77.608C36.577 78.4 37.225 79.016 38.049 79.312L38.377 78.792ZM35.137 80.632H39.281V82.6H39.937V80.104H35.137V80.632ZM39.281 75.424V79.736H39.937V75.424H39.281ZM46.6244 75.416V82.608H47.2804V75.416H46.6244ZM43.4964 75.968C42.4324 75.968 41.6724 76.944 41.6724 78.472C41.6724 80 42.4324 80.976 43.4964 80.976C44.5604 80.976 45.3204 80 45.3204 78.472C45.3204 76.944 44.5604 75.968 43.4964 75.968ZM43.4964 76.56C44.1924 76.56 44.6884 77.312 44.6884 78.472C44.6884 79.64 44.1924 80.392 43.4964 80.392C42.7924 80.392 42.2964 79.64 42.2964 78.472C42.2964 77.312 42.7924 76.56 43.4964 76.56ZM49.7038 76.112H49.0558V80.776H49.6238C50.7198 80.776 51.8158 80.696 53.0398 80.448L52.9598 79.904C51.7998 80.136 50.7358 80.224 49.7038 80.224V76.112ZM55.4398 78.28H54.2878V75.416H53.6318V82.592H54.2878V78.824H55.4398V78.28ZM63.4533 77.272V78.232H61.5733V78.768H63.4533V79.712H64.1173V75.424H63.4533V76.736H61.8293C61.8773 76.488 61.9093 76.224 61.9093 75.96H58.6693V76.488H61.1973C61.0773 77.728 60.0133 78.68 58.3013 79.192L58.5653 79.712C60.1093 79.264 61.1973 78.424 61.6613 77.272H63.4533ZM61.7733 82.048C60.7173 82.048 60.0453 81.72 60.0453 81.176C60.0453 80.64 60.7173 80.312 61.7733 80.312C62.8293 80.312 63.5013 80.64 63.5013 81.176C63.5013 81.72 62.8293 82.048 61.7733 82.048ZM61.7733 79.792C60.3253 79.792 59.3973 80.312 59.3973 81.176C59.3973 82.04 60.3253 82.56 61.7733 82.56C63.2213 82.56 64.1493 82.04 64.1493 81.176C64.1493 80.312 63.2213 79.792 61.7733 79.792ZM69.7326 76.168H67.9806V75.344H67.3246V76.168H65.5726V76.696H69.7326V76.168ZM66.6126 78.344C66.6126 77.88 67.0446 77.56 67.6526 77.56C68.2606 77.56 68.6926 77.88 68.6926 78.344C68.6926 78.808 68.2606 79.128 67.6526 79.128C67.0446 79.128 66.6126 78.808 66.6126 78.344ZM69.3086 78.344C69.3086 77.576 68.6206 77.064 67.6526 77.064C66.6766 77.064 65.9886 77.576 65.9886 78.344C65.9886 79.112 66.6766 79.616 67.6526 79.616C68.6206 79.616 69.3086 79.112 69.3086 78.344ZM67.4526 80.664H70.8366V81.968H67.4526V80.664ZM66.8126 82.496H71.4766V80.144H66.8126V82.496ZM70.8126 75.424V77.6H69.6206V78.136H70.8126V79.76H71.4766V75.424H70.8126ZM78.14 75.416V82.608H78.796V75.416H78.14ZM75.012 75.968C73.948 75.968 73.188 76.944 73.188 78.472C73.188 80 73.948 80.976 75.012 80.976C76.076 80.976 76.836 80 76.836 78.472C76.836 76.944 76.076 75.968 75.012 75.968ZM75.012 76.56C75.708 76.56 76.204 77.312 76.204 78.472C76.204 79.64 75.708 80.392 75.012 80.392C74.308 80.392 73.812 79.64 73.812 78.472C73.812 77.312 74.308 76.56 75.012 76.56ZM83.2335 76.768H84.7375V80.144H83.2335V76.768ZM82.6175 80.664H85.3455V76.248H82.6175V80.664ZM87.8335 75.416V78.256H86.8655V75.576H86.2495V82.232H86.8655V78.792H87.8335V82.584H88.4575V75.416H87.8335ZM92.9529 76.232C94.0489 76.232 94.7929 76.64 94.7929 77.272C94.7929 77.912 94.0489 78.32 92.9529 78.32C91.8649 78.32 91.1209 77.912 91.1209 77.272C91.1209 76.64 91.8649 76.232 92.9529 76.232ZM92.9529 78.848C94.4489 78.848 95.4649 78.24 95.4649 77.272C95.4649 76.312 94.4489 75.704 92.9529 75.704C91.4649 75.704 90.4489 76.312 90.4489 77.272C90.4489 78.24 91.4649 78.848 92.9529 78.848ZM96.2169 79.528H89.7209V80.072H92.6249V82.6H93.2809V80.072H96.2169V79.528ZM101.262 76.792H102.542V76.256H99.2704V76.792H100.63V77.44C100.63 78.76 100.07 80.064 99.0704 80.664L99.4704 81.152C100.182 80.704 100.702 79.864 100.95 78.88C101.198 79.792 101.694 80.56 102.39 80.976L102.79 80.496C101.798 79.936 101.262 78.688 101.262 77.44V76.792ZM103.182 77.992H101.998V78.528H103.182V82.216H103.806V75.576H103.182V77.992ZM104.622 75.408V82.584H105.254V75.408H104.622ZM110.774 76.296H108.982V75.416H108.326V76.296H106.542V76.824H110.774V76.296ZM107.566 78.552C107.566 78.056 108.006 77.736 108.654 77.736C109.302 77.736 109.75 78.056 109.75 78.552C109.75 79.056 109.302 79.376 108.654 79.376C108.006 79.376 107.566 79.056 107.566 78.552ZM110.374 78.552C110.374 77.752 109.67 77.224 108.654 77.224C107.638 77.224 106.942 77.752 106.942 78.552C106.942 79.36 107.638 79.888 108.654 79.888C109.67 79.888 110.374 79.36 110.374 78.552ZM108.278 80.376H107.622V82.432H112.406V81.896H108.278V80.376ZM112.086 77.784V75.416H111.43V80.8H112.086V78.336H113.142V77.784H112.086ZM118.109 78.92C117.069 78.552 116.365 77.648 116.365 76.728V76.44H117.941V75.904H114.109V76.44H115.709V76.728C115.709 77.744 114.965 78.704 113.901 79.08L114.245 79.6C115.085 79.288 115.741 78.632 116.045 77.808C116.365 78.552 116.981 79.144 117.781 79.432L118.109 78.92ZM114.989 80.632H119.125V82.6H119.789V80.104H114.989V80.632ZM119.125 75.416V77.288H117.725V77.824H119.125V79.712H119.789V75.416H119.125ZM126.453 75.416V82.608H127.109V75.416H126.453ZM123.325 75.968C122.261 75.968 121.501 76.944 121.501 78.472C121.501 80 122.261 80.976 123.325 80.976C124.389 80.976 125.149 80 125.149 78.472C125.149 76.944 124.389 75.968 123.325 75.968ZM123.325 76.56C124.021 76.56 124.517 77.312 124.517 78.472C124.517 79.64 124.021 80.392 123.325 80.392C122.621 80.392 122.125 79.64 122.125 78.472C122.125 77.312 122.621 76.56 123.325 76.56ZM132.148 79.112V77.672H133.852V79.112H132.148ZM131.5 80.256H129.524V76.64H131.5V80.256ZM133.852 75.416V77.136H132.148V76.12H128.884V80.776H132.148V79.648H133.852V82.608H134.508V75.416H133.852ZM0.848 87.192V87.72H3.544C3.408 89.424 2.448 90.8 0.52 91.72L0.872 92.256C3.256 91.088 4.208 89.264 4.208 87.192H0.848ZM5.656 86.416V93.592H6.312V86.416H5.656ZM9.27138 91.448H8.61538V93.432H13.5514V92.896H9.27138V91.448ZM9.28738 88.12H12.7754V89.04H9.28738V88.12ZM11.3594 90.336V89.568H13.4234V86.696H12.7754V87.608H9.28738V86.696H8.63938V89.568H10.7034V90.336H7.77538V90.872H14.2714V90.336H11.3594ZM19.3748 89.92C18.3348 89.552 17.6308 88.648 17.6308 87.728V87.44H19.2068V86.904H15.3748V87.44H16.9748V87.728C16.9748 88.744 16.2308 89.704 15.1668 90.08L15.5108 90.6C16.3508 90.288 17.0068 89.632 17.3108 88.808C17.6308 89.552 18.2468 90.144 19.0468 90.432L19.3748 89.92ZM16.2548 91.632H20.3908V93.6H21.0548V91.104H16.2548V91.632ZM20.3908 86.416V88.288H18.9908V88.824H20.3908V90.712H21.0548V86.416H20.3908ZM28.3901 86.424H27.7341V91.664H28.3901V86.424ZM23.3101 88.68C23.3101 87.984 23.8381 87.488 24.5341 87.488C25.2461 87.488 25.7741 87.984 25.7741 88.68C25.7741 89.392 25.2461 89.888 24.5341 89.888C23.8381 89.888 23.3101 89.392 23.3101 88.68ZM26.4141 88.68C26.4141 87.648 25.6061 86.92 24.5341 86.92C23.4701 86.92 22.6701 87.648 22.6701 88.68C22.6701 89.72 23.4701 90.456 24.5341 90.456C25.6061 90.456 26.4141 89.72 26.4141 88.68ZM24.4301 92.896V91.128H23.7741V93.432H28.6061V92.896H24.4301ZM37.1956 92.968H33.9076V92.04H37.1956V92.968ZM37.1956 91.528H33.9076V90.616H33.2596V93.496H37.8516V90.616H37.1956V91.528ZM33.8996 89.528C33.1876 89.528 32.6756 89.064 32.6756 88.408C32.6756 87.752 33.1876 87.296 33.8996 87.296C34.6116 87.296 35.1236 87.752 35.1236 88.408C35.1236 89.064 34.6116 89.528 33.8996 89.528ZM37.1876 86.424V88.128H35.7236C35.5876 87.296 34.8676 86.752 33.8996 86.752C32.8276 86.752 32.0516 87.424 32.0516 88.408C32.0516 89.4 32.8276 90.072 33.8996 90.072C34.8836 90.072 35.6036 89.512 35.7316 88.664H37.1876V90.272H37.8516V86.424H37.1876ZM44.323 89.088H40.763V87.344H44.323V89.088ZM44.971 86.816H40.123V89.608H44.971V86.816ZM45.803 90.584H39.291V91.112H42.203V93.584H42.859V91.112H45.803V90.584ZM54.9125 89.152C53.6085 88.96 52.3285 88.072 52.3285 87.072V86.672H51.6405V87.072C51.6405 88.096 50.3765 88.96 49.0725 89.152L49.3365 89.68C50.4565 89.488 51.5365 88.872 51.9845 88C52.4485 88.864 53.5285 89.488 54.6405 89.68L54.9125 89.152ZM55.2245 90.456H48.7445V91H51.6405V93.6H52.2965V91H55.2325L55.2245 90.456ZM60.6079 88.904H61.5199V90.96H62.1519V86.416H61.5199V88.368H60.6079V86.552H59.9839V90.696H60.6079V88.904ZM59.6959 87.272H58.2079V86.472H57.5599V87.272H56.0559V87.792H59.7039L59.6959 87.272ZM56.9439 89.392C56.9439 88.952 57.3199 88.656 57.8879 88.656C58.4479 88.656 58.8319 88.952 58.8319 89.392C58.8319 89.84 58.4479 90.136 57.8879 90.136C57.3199 90.136 56.9439 89.84 56.9439 89.392ZM59.4159 89.392C59.4159 88.656 58.7919 88.168 57.8879 88.168C56.9839 88.168 56.3519 88.656 56.3519 89.392C56.3519 90.144 56.9839 90.624 57.8879 90.624C58.7919 90.624 59.4159 90.144 59.4159 89.392ZM59.7919 93.08C58.6959 93.08 58.0399 92.808 58.0399 92.336C58.0399 91.856 58.6959 91.584 59.7919 91.584C60.8799 91.584 61.5359 91.856 61.5359 92.336C61.5359 92.808 60.8799 93.08 59.7919 93.08ZM59.7919 91.08C58.2959 91.08 57.3919 91.528 57.3919 92.336C57.3919 93.136 58.2959 93.584 59.7919 93.584C61.2879 93.584 62.1919 93.136 62.1919 92.336C62.1919 91.528 61.2879 91.08 59.7919 91.08ZM65.0793 91.408C64.5033 91.408 64.1433 90.68 64.1433 89.504C64.1433 88.352 64.5033 87.624 65.0793 87.624C65.6393 87.624 66.0073 88.352 66.0073 89.504C66.0073 90.68 65.6393 91.408 65.0793 91.408ZM67.5033 89.208H66.5993C66.5193 87.856 65.9433 87.016 65.0793 87.016C64.1433 87.016 63.5433 87.976 63.5433 89.504C63.5433 91.056 64.1433 92.016 65.0793 92.016C65.9593 92.016 66.5433 91.152 66.5993 89.744H67.5033V93.24H68.1273V86.576H67.5033V89.208ZM68.9273 86.416V93.592H69.5513V86.416H68.9273ZM74.3906 92.144V90.304H76.5746V89.776H72.2946V87.528H76.5026V86.992H71.6386V90.304H73.7266V92.144H70.8066V92.688H77.3266V92.144H74.3906ZM83.8281 92.144V90.304H86.0121V89.776H81.7321V87.528H85.9401V86.992H81.0761V90.304H83.1641V92.144H80.2441V92.688H86.7641V92.144H83.8281ZM90.8595 87.064C91.9875 87.064 92.6995 87.376 92.6995 87.904C92.6995 88.424 91.9875 88.736 90.8595 88.736C89.7155 88.736 89.0035 88.424 89.0035 87.904C89.0035 87.376 89.7155 87.064 90.8595 87.064ZM90.8595 89.24C92.4035 89.24 93.3715 88.752 93.3715 87.904C93.3715 87.048 92.4035 86.552 90.8595 86.552C89.2995 86.552 88.3315 87.048 88.3315 87.904C88.3315 88.752 89.2995 89.24 90.8595 89.24ZM92.6675 92.968H89.0515V91.656H92.6675V92.968ZM94.0995 90.32V89.792H87.6115V90.32H90.5315V91.136H88.4115V93.496H93.3075V91.136H91.1875V90.32H94.0995ZM100.187 86.416V93.608H100.843V86.416H100.187ZM97.0589 86.968C95.9949 86.968 95.2349 87.944 95.2349 89.472C95.2349 91 95.9949 91.976 97.0589 91.976C98.1229 91.976 98.8829 91 98.8829 89.472C98.8829 87.944 98.1229 86.968 97.0589 86.968ZM97.0589 87.56C97.7549 87.56 98.2509 88.312 98.2509 89.472C98.2509 90.64 97.7549 91.392 97.0589 91.392C96.3549 91.392 95.8589 90.64 95.8589 89.472C95.8589 88.312 96.3549 87.56 97.0589 87.56ZM110.304 86.416H109.648V90.144H110.304V86.416ZM106.072 87.416H107.24V89.28C106.848 89.304 106.456 89.32 106.072 89.328V87.416ZM108.928 89.144C108.584 89.176 108.232 89.216 107.872 89.24V87.416H108.576V86.896H104.728V87.416H105.432V89.344C105.12 89.352 104.816 89.352 104.536 89.352L104.6 89.896C105.864 89.888 107.536 89.84 108.96 89.624L108.928 89.144ZM106.288 92.992V92.208H110.304V90.488H105.616V91H109.656V91.72H105.64V93.512H110.576V92.992H106.288ZM114.016 90.44C114.312 90.512 114.656 90.552 115.008 90.552C115.368 90.552 115.712 90.512 116.016 90.44V92.128H114.016V90.44ZM115.008 87.384C116.16 87.384 116.992 87.912 116.992 88.712C116.992 89.512 116.16 90.04 115.008 90.04C113.856 90.04 113.032 89.512 113.032 88.712C113.032 87.912 113.856 87.384 115.008 87.384ZM116.672 92.128V90.184C117.264 89.872 117.616 89.36 117.616 88.712C117.616 87.592 116.536 86.872 115.008 86.872C113.488 86.872 112.4 87.592 112.4 88.712C112.4 89.36 112.76 89.88 113.36 90.192V92.128H111.76V92.672H118.28V92.128H116.672ZM123.383 87.296H121.591V86.416H120.935V87.296H119.151V87.824H123.383V87.296ZM120.175 89.552C120.175 89.056 120.615 88.736 121.263 88.736C121.911 88.736 122.359 89.056 122.359 89.552C122.359 90.056 121.911 90.376 121.263 90.376C120.615 90.376 120.175 90.056 120.175 89.552ZM122.983 89.552C122.983 88.752 122.279 88.224 121.263 88.224C120.247 88.224 119.551 88.752 119.551 89.552C119.551 90.36 120.247 90.888 121.263 90.888C122.279 90.888 122.983 90.36 122.983 89.552ZM120.887 91.376H120.231V93.432H125.015V92.896H120.887V91.376ZM124.695 88.784V86.416H124.039V91.8H124.695V89.336H125.751V88.784H124.695ZM134.741 89.152C133.437 88.96 132.157 88.072 132.157 87.072V86.672H131.469V87.072C131.469 88.096 130.205 88.96 128.901 89.152L129.165 89.68C130.285 89.488 131.365 88.872 131.813 88C132.277 88.864 133.357 89.488 134.469 89.68L134.741 89.152ZM135.053 90.456H128.573V91H131.469V93.6H132.125V91H135.061L135.053 90.456ZM136.564 89.592C137.724 89.416 138.78 88.84 139.172 88.008C139.556 88.84 140.612 89.416 141.78 89.592L142.02 89.064C140.756 88.896 139.596 88.184 139.596 87.312V87.304H141.828V86.776H136.516V87.304H138.748V87.312C138.748 88.184 137.588 88.896 136.316 89.064L136.564 89.592ZM137.396 91.4H136.74V93.432H141.7V92.896H137.396V91.4ZM135.908 90.112V90.64H138.892V92.096H139.548V90.64H142.42V90.112H135.908ZM143.435 92.568C143.435 92.3707 143.483 92.232 143.579 92.152C143.675 92.072 143.79 92.032 143.923 92.032C144.062 92.032 144.179 92.072 144.275 92.152C144.377 92.232 144.427 92.3707 144.427 92.568C144.427 92.76 144.377 92.8987 144.275 92.984C144.179 93.0693 144.062 93.112 143.923 93.112C143.79 93.112 143.675 93.0693 143.579 92.984C143.483 92.8987 143.435 92.76 143.435 92.568ZM26.1878 103.968H22.8998V103.04H26.1878V103.968ZM26.1878 102.528H22.8998V101.616H22.2518V104.496H26.8438V101.616H26.1878V102.528ZM22.8918 100.528C22.1798 100.528 21.6678 100.064 21.6678 99.408C21.6678 98.752 22.1798 98.296 22.8918 98.296C23.6038 98.296 24.1158 98.752 24.1158 99.408C24.1158 100.064 23.6038 100.528 22.8918 100.528ZM26.1798 97.424V99.128H24.7158C24.5798 98.296 23.8598 97.752 22.8918 97.752C21.8198 97.752 21.0438 98.424 21.0438 99.408C21.0438 100.4 21.8198 101.072 22.8918 101.072C23.8758 101.072 24.5958 100.512 24.7238 99.664H26.1798V101.272H26.8438V97.424H26.1798ZM33.3152 100.088H29.7552V98.344H33.3152V100.088ZM33.9632 97.816H29.1152V100.608H33.9632V97.816ZM34.7952 101.584H28.2832V102.112H31.1952V104.584H31.8512V102.112H34.7952V101.584ZM41.4967 100.48C41.6807 99.536 41.6807 98.824 41.6807 98.352V97.976H38.1127V98.512H41.0407C41.0407 98.968 41.0167 99.584 40.8487 100.408L41.4967 100.48ZM42.1767 100.912C41.4487 101.008 40.6327 101.072 39.8487 101.104V99.576H39.2007V101.128C38.6567 101.136 38.1367 101.144 37.6807 101.144L37.7447 101.68C39.0167 101.68 40.7367 101.64 42.2247 101.392L42.1767 100.912ZM39.4327 102.328H38.7767V104.432H43.5447V103.896H39.4327V102.328ZM43.3127 99.752V97.416H42.6567V102.824H43.3127V100.296H44.3367V99.752H43.3127ZM50.3361 102.696H51.0001V97.424H50.3361V98.632H48.9441V99.16H50.3361V100.232H48.9441V100.768H50.3361V102.696ZM48.8881 101.016C48.0321 101.168 47.3121 101.2 46.0321 101.2V100.024H48.4641V97.928H45.3681V98.456H47.8081V99.512H45.3841V101.736H45.9041C47.2881 101.736 48.0401 101.712 48.9521 101.552L48.8881 101.016ZM47.0081 103.872V102.312H46.3521V104.4H51.2161V103.872H47.0081ZM61.0056 100.904H60.0136C60.2776 99.632 60.2776 98.744 60.2776 98.232V97.912H57.8936V98.448H59.6296C59.6216 98.984 59.5896 99.8 59.3576 100.904H57.0456C57.3656 99.552 57.3656 98.6 57.3656 98.152V97.912H55.0456V98.448H56.7256C56.7176 98.976 56.6616 99.8 56.3656 100.904H54.5176V101.44H57.4376V104.592H58.0936V101.44H61.0056V100.904ZM62.5249 100.592C63.6849 100.416 64.7409 99.84 65.1329 99.008C65.5169 99.84 66.5729 100.416 67.7409 100.592L67.9809 100.064C66.7169 99.896 65.5569 99.184 65.5569 98.312V98.304H67.7889V97.776H62.4769V98.304H64.7089V98.312C64.7089 99.184 63.5489 99.896 62.2769 100.064L62.5249 100.592ZM63.3569 102.4H62.7009V104.432H67.6609V103.896H63.3569V102.4ZM61.8689 101.112V101.64H64.8529V103.096H65.5089V101.64H68.3809V101.112H61.8689ZM73.5003 98.296H71.7083V97.416H71.0523V98.296H69.2683V98.824H73.5003V98.296ZM70.2923 100.552C70.2923 100.056 70.7323 99.736 71.3803 99.736C72.0283 99.736 72.4763 100.056 72.4763 100.552C72.4763 101.056 72.0283 101.376 71.3803 101.376C70.7323 101.376 70.2923 101.056 70.2923 100.552ZM73.1003 100.552C73.1003 99.752 72.3963 99.224 71.3803 99.224C70.3643 99.224 69.6683 99.752 69.6683 100.552C69.6683 101.36 70.3643 101.888 71.3803 101.888C72.3963 101.888 73.1003 101.36 73.1003 100.552ZM71.0043 102.376H70.3483V104.432H75.1323V103.896H71.0043V102.376ZM74.8123 99.784V97.416H74.1563V102.8H74.8123V100.336H75.8683V99.784H74.8123ZM82.9378 98.176H81.1458V97.376H80.4898V98.176H78.7058V98.704H82.9378V98.176ZM79.7298 100.368C79.7298 99.896 80.1618 99.584 80.8178 99.584C81.4738 99.584 81.9138 99.896 81.9138 100.368C81.9138 100.848 81.4738 101.16 80.8178 101.16C80.1618 101.16 79.7298 100.848 79.7298 100.368ZM82.5378 100.368C82.5378 99.584 81.8418 99.072 80.8178 99.072C79.8018 99.072 79.1058 99.584 79.1058 100.368C79.1058 101.16 79.8018 101.664 80.8178 101.664C81.8418 101.664 82.5378 101.16 82.5378 100.368ZM79.5938 102.832H83.5938V104.6H84.2498V102.296H79.5938V102.832ZM85.3138 99.4H84.2498V97.424H83.5938V101.904H84.2498V99.944H85.3138V99.4ZM92.1612 99.656C90.8892 99.496 89.6252 98.704 89.6252 97.816V97.496H88.9532V97.816C88.9532 98.728 87.6972 99.496 86.4092 99.656L86.6492 100.184C87.7692 100.008 88.8412 99.448 89.2892 98.648C89.7452 99.448 90.8092 100.008 91.9212 100.184L92.1612 99.656ZM91.0332 103.968H87.5052V103.056H91.0332V103.968ZM91.0332 102.552H87.5052V101.712H86.8572V104.496H91.6812V101.712H91.0332V102.552ZM86.0332 100.688V101.216H92.5292V100.688H86.0332ZM98.6166 97.416V104.608H99.2726V97.416H98.6166ZM95.4886 97.968C94.4246 97.968 93.6646 98.944 93.6646 100.472C93.6646 102 94.4246 102.976 95.4886 102.976C96.5526 102.976 97.3126 102 97.3126 100.472C97.3126 98.944 96.5526 97.968 95.4886 97.968ZM95.4886 98.56C96.1846 98.56 96.6806 99.312 96.6806 100.472C96.6806 101.64 96.1846 102.392 95.4886 102.392C94.7846 102.392 94.2886 101.64 94.2886 100.472C94.2886 99.312 94.7846 98.56 95.4886 98.56ZM108.734 97.416H108.078V101.144H108.734V97.416ZM104.502 98.416H105.67V100.28C105.278 100.304 104.886 100.32 104.502 100.328V98.416ZM107.358 100.144C107.014 100.176 106.662 100.216 106.302 100.24V98.416H107.006V97.896H103.158V98.416H103.862V100.344C103.55 100.352 103.246 100.352 102.966 100.352L103.03 100.896C104.294 100.888 105.966 100.84 107.39 100.624L107.358 100.144ZM104.718 103.992V103.208H108.734V101.488H104.046V102H108.086V102.72H104.07V104.512H109.006V103.992H104.718ZM112.445 101.44C112.741 101.512 113.085 101.552 113.437 101.552C113.797 101.552 114.141 101.512 114.445 101.44V103.128H112.445V101.44ZM113.437 98.384C114.589 98.384 115.421 98.912 115.421 99.712C115.421 100.512 114.589 101.04 113.437 101.04C112.285 101.04 111.461 100.512 111.461 99.712C111.461 98.912 112.285 98.384 113.437 98.384ZM115.101 103.128V101.184C115.693 100.872 116.045 100.36 116.045 99.712C116.045 98.592 114.965 97.872 113.437 97.872C111.917 97.872 110.829 98.592 110.829 99.712C110.829 100.36 111.189 100.88 111.789 101.192V103.128H110.189V103.672H116.709V103.128H115.101ZM121.813 98.176H120.021V97.352H119.365V98.176H117.581V98.704H121.813V98.176ZM118.605 100.344C118.605 99.872 119.037 99.56 119.693 99.56C120.349 99.56 120.789 99.872 120.789 100.344C120.789 100.816 120.349 101.128 119.693 101.128C119.037 101.128 118.605 100.816 118.605 100.344ZM121.413 100.344C121.413 99.56 120.717 99.064 119.693 99.064C118.669 99.064 117.981 99.56 117.981 100.344C117.981 101.12 118.669 101.616 119.693 101.616C120.717 101.616 121.413 101.12 121.413 100.344ZM119.261 102.664H122.477V103.968H119.261V102.664ZM118.621 104.496H123.125V102.144H118.621V104.496ZM124.189 99.328H123.125V97.424H122.469V101.736H123.125V99.872H124.189V99.328Z" fill="#818181"/>
<defs>
<filter id="filter0_d_7_396" x="49" y="0" width="52" height="57" filterUnits="userSpaceOnUse" color-interpolation-filters="sRGB">
<feFlood flood-opacity="0" result="BackgroundImageFix"/>
<feColorMatrix in="SourceAlpha" type="matrix" values="0 0 0 0 0 0 0 0 0 0 0 0 0 0 0 0 0 0 127 0" result="hardAlpha"/>
<feOffset dx="2" dy="2"/>
<feGaussianBlur stdDeviation="1"/>
<feComposite in2="hardAlpha" operator="out"/>
<feColorMatrix type="matrix" values="0 0 0 0 0.815686 0 0 0 0 0.784314 0 0 0 0 0.713726 0 0 0 0.5 0"/>
<feBlend mode="normal" in2="BackgroundImageFix" result="effect1_dropShadow_7_396"/>
<feBlend mode="normal" in="SourceGraphic" in2="effect1_dropShadow_7_396" result="shape"/>
</filter>
<filter id="filter1_d_7_396" x="225" y="0" width="52" height="57" filterUnits="userSpaceOnUse" color-interpolation-filters="sRGB">
<feFlood flood-opacity="0" result="BackgroundImageFix"/>
<feColorMatrix in="SourceAlpha" type="matrix" values="0 0 0 0 0 0 0 0 0 0 0 0 0 0 0 0 0 0 127 0" result="hardAlpha"/>
<feOffset dx="2" dy="2"/>
<feGaussianBlur stdDeviation="1"/>
<feComposite in2="hardAlpha" operator="out"/>
<feColorMatrix type="matrix" values="0 0 0 0 0.815686 0 0 0 0 0.784314 0 0 0 0 0.713726 0 0 0 0.25 0"/>
<feBlend mode="normal" in2="BackgroundImageFix" result="effect1_dropShadow_7_396"/>
<feBlend mode="normal" in="SourceGraphic" in2="effect1_dropShadow_7_396" result="shape"/>
</filter>
<filter id="filter2_d_7_396" x="49" y="131" width="52" height="57" filterUnits="userSpaceOnUse" color-interpolation-filters="sRGB">
<feFlood flood-opacity="0" result="BackgroundImageFix"/>
<feColorMatrix in="SourceAlpha" type="matrix" values="0 0 0 0 0 0 0 0 0 0 0 0 0 0 0 0 0 0 127 0" result="hardAlpha"/>
<feOffset dx="2" dy="2"/>
<feGaussianBlur stdDeviation="1"/>
<feComposite in2="hardAlpha" operator="out"/>
<feColorMatrix type="matrix" values="0 0 0 0 0.815686 0 0 0 0 0.784314 0 0 0 0 0.713726 0 0 0 0.25 0"/>
<feBlend mode="normal" in2="BackgroundImageFix" result="effect1_dropShadow_7_396"/>
<feBlend mode="normal" in="SourceGraphic" in2="effect1_dropShadow_7_396" result="shape"/>
</filter>
<filter id="filter3_d_7_396" x="225" y="131" width="52" height="57" filterUnits="userSpaceOnUse" color-interpolation-filters="sRGB">
<feFlood flood-opacity="0" result="BackgroundImageFix"/>
<feColorMatrix in="SourceAlpha" type="matrix" values="0 0 0 0 0 0 0 0 0 0 0 0 0 0 0 0 0 0 127 0" result="hardAlpha"/>
<feOffset dx="2" dy="2"/>
<feGaussianBlur stdDeviation="1"/>
<feComposite in2="hardAlpha" operator="out"/>
<feColorMatrix type="matrix" values="0 0 0 0 0.815686 0 0 0 0 0.784314 0 0 0 0 0.713726 0 0 0 0.25 0"/>
<feBlend mode="normal" in2="BackgroundImageFix" result="effect1_dropShadow_7_396"/>
<feBlend mode="normal" in="SourceGraphic" in2="effect1_dropShadow_7_396" result="shape"/>
</filter>
</defs>
</svg>
