<svg width="222" height="191" viewBox="0 0 222 191" fill="none" xmlns="http://www.w3.org/2000/svg">
<path fill-rule="evenodd" clip-rule="evenodd" d="M59.7655 174.392C49.8823 168.527 41.2702 161.231 34.6704 153.075C18.317 132.81 14.4342 107.235 20.7837 87.2538C26.4863 69.3082 40.4423 55.9394 55.1069 41.8919C56.7705 40.2983 58.4433 38.6959 60.1142 37.0771C61.6173 35.6205 63.1184 34.1506 64.6212 32.6791C67.6498 29.7135 70.685 26.7414 73.7558 23.8592C67.379 19.7166 60.9297 16.6449 53.9596 15.3852C36.9609 12.3132 16.9159 20.0189 7.85333 33.8943C-0.352997 46.5176 0.518279 64.2075 1.38039 81.7113C1.46765 83.4829 1.55481 85.2526 1.63246 87.015C1.71853 88.9739 1.79318 90.9235 1.86743 92.8624C2.52184 109.954 3.14464 126.219 11.2838 140.75C20.2256 156.714 38.1895 170.535 59.7655 174.392Z" fill="#D0C8B6" fill-opacity="0.45"/>
<path fill-rule="evenodd" clip-rule="evenodd" d="M179.517 162.636C184.017 166.073 188.408 168.739 193.457 169.435C201.838 170.59 212.007 166.317 216.867 159.216C221.27 152.756 221.283 143.975 221.297 135.287C221.298 134.407 221.299 133.529 221.305 132.654C221.312 131.681 221.324 130.713 221.336 129.75C221.442 121.262 221.543 113.185 217.86 106.135C213.759 98.2853 204.991 91.7344 194.153 90.4081C191.844 90.1287 189.441 90.0854 187.003 90.2714C187.216 91.8515 187.435 93.4398 187.655 95.034C190.681 116.961 193.858 139.987 183.101 157.596C182.038 159.33 180.839 161.011 179.517 162.636Z" fill="white" fill-opacity="0.2"/>
<g filter="url(#filter0_i_132_49)">
<path d="M170.813 22.6696C183.238 38.5575 183.284 60.5251 186.345 85.2081C189.405 109.891 195.481 137.33 183.101 157.596C170.676 177.861 139.751 190.952 109.876 190.06C80.0014 189.169 51.1773 174.213 34.7782 153.948C18.4247 133.683 14.5419 108.108 20.8914 88.1263C27.2409 68.1448 43.8228 53.8375 60.2219 37.9496C76.5754 22.1022 92.7004 4.67406 113.165 0.823664C133.63 -2.9862 158.388 6.78164 170.813 22.6696Z" fill="#E6CDB5" fill-opacity="0.5"/>
</g>
<defs>
<filter id="filter0_i_132_49" x="18" y="0" width="202.56" height="250.103" filterUnits="userSpaceOnUse" color-interpolation-filters="sRGB">
<feFlood flood-opacity="0" result="BackgroundImageFix"/>
<feBlend mode="normal" in="SourceGraphic" in2="BackgroundImageFix" result="shape"/>
<feColorMatrix in="SourceAlpha" type="matrix" values="0 0 0 0 0 0 0 0 0 0 0 0 0 0 0 0 0 0 127 0" result="hardAlpha"/>
<feOffset dx="30" dy="60"/>
<feGaussianBlur stdDeviation="35"/>
<feComposite in2="hardAlpha" operator="arithmetic" k2="-1" k3="1"/>
<feColorMatrix type="matrix" values="0 0 0 0 1 0 0 0 0 1 0 0 0 0 1 0 0 0 0.5 0"/>
<feBlend mode="normal" in2="shape" result="effect1_innerShadow_132_49"/>
</filter>
</defs>
</svg>
