<svg width="32" height="33" viewBox="0 0 32 33" fill="none" xmlns="http://www.w3.org/2000/svg">
<path d="M27.201 0H4.82189C2.1687 0 0 2.1687 0 4.82189V27.2241C0 29.8773 2.14563 32.0229 4.79882 32.0229H27.201C29.8542 32.0229 31.9998 29.8773 31.9998 27.2241V4.82189C32.0229 2.1687 29.8542 0 27.201 0ZM23.5327 25.6322C23.2327 27.0395 20.4873 27.2241 20.4873 27.2241C14.9502 26.8549 11.1434 18.9646 11.1434 18.9646C6.7368 10.3128 9.11314 7.01366 9.11314 7.01366C9.96678 5.76781 10.2898 5.67553 11.1203 5.14489C11.9509 4.61425 12.2508 4.8911 12.2508 4.8911C12.2508 4.8911 13.0814 4.93725 14.3965 7.08287C15.7115 9.2285 15.5731 10.2667 15.5731 10.2667C15.6884 11.2588 14.9502 11.5818 14.9502 11.5818C13.266 12.1355 13.4044 14.0504 13.4044 14.0504C13.4967 17.0958 15.1347 18.6877 16.196 19.5413C17.2573 20.395 18.6185 20.2335 18.7569 20.1412C18.8261 20.0951 19.103 19.9566 19.3337 19.8413C19.6798 19.7028 20.0951 19.6798 20.4642 19.8182C22.2868 20.5795 23.7865 24.3863 23.5327 25.6322Z" fill="#ECE1DC"/>
</svg>
