<svg width="32" height="33" viewBox="0 0 32 33" fill="none" xmlns="http://www.w3.org/2000/svg">
<path d="M28.8683 0H3.15426C1.41713 0 0 1.41713 0 3.15426V28.8455C0 30.6055 1.41713 32.0226 3.15426 32.0226H28.8455C30.5826 32.0226 31.9997 30.6055 31.9997 28.8683V3.15426C32.0226 1.41713 30.6055 0 28.8683 0ZM16.3884 23.8169H13.417L11.0856 10.8571L7.99993 10.9713V9.69135L12.3428 8.3885C14.4456 7.70279 14.697 9.80563 14.697 9.80563L16.5941 20.8913L19.4513 16.5484C21.3484 12.6627 20.5941 11.7256 20.3655 11.2456C20.1141 10.7199 18.6056 9.89706 18.6056 9.89706C19.5427 7.79422 22.377 8.27421 22.377 8.27421C22.377 8.27421 23.7941 8.52564 24.0227 11.3142C24.2512 14.1027 16.3884 23.8169 16.3884 23.8169Z" fill="#ECE1DC"/>
</svg>
